<svg width="358" height="210" viewBox="0 0 358 210" fill="none" xmlns="http://www.w3.org/2000/svg">
<g filter="url(#filter0_d)">
<rect x="10" width="338" height="190" rx="20" fill="url(#paint0_linear)"/>
<rect x="10.5" y="0.5" width="337" height="189" rx="19.5" stroke="white" stroke-opacity="0.3"/>
</g>
<mask id="mask0" style="mask-type:alpha" maskUnits="userSpaceOnUse" x="10" y="0" width="338" height="190">
<rect x="10" width="338" height="190" rx="20" fill="#16056B"/>
<rect x="10.5" y="0.5" width="337" height="189" rx="19.5" stroke="white" stroke-opacity="0.3"/>
</mask>
<g mask="url(#mask0)">
<path opacity="0.2" d="M230.013 0C230.013 25.9362 208.005 47 180.807 47C153.61 47 131.602 25.9362 131.602 0C131.602 -25.9362 153.61 -47 180.807 -47C208.005 -47 230.013 -25.9362 230.013 0Z" stroke="white" stroke-opacity="0.3"/>
<path opacity="0.2" d="M103.489 177.909C103.489 215.77 71.3652 246.5 31.6898 246.5C-7.98553 246.5 -40.1096 215.77 -40.1096 177.909C-40.1096 140.048 -7.98553 109.318 31.6898 109.318C71.3652 109.318 103.489 140.048 103.489 177.909Z" stroke="white" stroke-opacity="0.3"/>
</g>
<g opacity="0.1" filter="url(#filter1_d)">
<rect x="284.738" y="17.2727" width="45.1872" height="34.5455" rx="10" fill="white"/>
<rect x="285.238" y="17.7727" width="44.1872" height="33.5455" rx="9.5" stroke="white" stroke-opacity="0.3"/>
</g>
<rect opacity="0.1" x="285.238" y="17.7727" width="44.1872" height="33.5455" rx="9.5" stroke="white" stroke-opacity="0.3"/>
<line x1="309.94" y1="24.6819" x2="309.94" y2="44.4092" stroke="white" stroke-opacity="0.3" stroke-linecap="round"/>
<line x1="310.543" y1="30.5908" x2="321.292" y2="30.5908" stroke="white" stroke-opacity="0.3" stroke-linecap="round"/>
<line x1="310.543" y1="39.2273" x2="321.292" y2="39.2273" stroke="white" stroke-opacity="0.3" stroke-linecap="round"/>
<line x1="302.409" y1="29" x2="302.409" y2="44.4091" stroke="white" stroke-opacity="0.3" stroke-linecap="round"/>
<line x1="293.372" y1="30.5908" x2="304.12" y2="30.5908" stroke="white" stroke-opacity="0.3" stroke-linecap="round"/>
<line x1="293.372" y1="39.2273" x2="304.12" y2="39.2273" stroke="white" stroke-opacity="0.3" stroke-linecap="round"/>
<path d="M29.752 78.728V76.968L34.984 69.48H37.592V76.776H39V78.728H37.592V81H35.352V78.728H29.752ZM35.496 71.88L32.216 76.776H35.496V71.88ZM40.4581 72.408C40.5115 71.3413 40.8848 70.52 41.5781 69.944C42.2821 69.3573 43.2048 69.064 44.3461 69.064C45.1248 69.064 45.7915 69.2027 46.3461 69.48C46.9008 69.7467 47.3168 70.1147 47.5941 70.584C47.8821 71.0427 48.0261 71.5653 48.0261 72.152C48.0261 72.824 47.8501 73.3947 47.4981 73.864C47.1568 74.3227 46.7461 74.632 46.2661 74.792V74.856C46.8848 75.048 47.3648 75.3893 47.7061 75.88C48.0581 76.3707 48.2341 77 48.2341 77.768C48.2341 78.408 48.0848 78.9787 47.7861 79.48C47.4981 79.9813 47.0661 80.376 46.4901 80.664C45.9248 80.9413 45.2421 81.08 44.4421 81.08C43.2368 81.08 42.2555 80.776 41.4981 80.168C40.7408 79.56 40.3408 78.664 40.2981 77.48H42.4741C42.4955 78.0027 42.6715 78.424 43.0021 78.744C43.3435 79.0533 43.8075 79.208 44.3941 79.208C44.9381 79.208 45.3541 79.0587 45.6421 78.76C45.9408 78.4507 46.0901 78.056 46.0901 77.576C46.0901 76.936 45.8875 76.4773 45.4821 76.2C45.0768 75.9227 44.4475 75.784 43.5941 75.784H43.1301V73.944H43.5941C45.1088 73.944 45.8661 73.4373 45.8661 72.424C45.8661 71.9653 45.7275 71.608 45.4501 71.352C45.1835 71.096 44.7941 70.968 44.2821 70.968C43.7808 70.968 43.3915 71.1067 43.1141 71.384C42.8475 71.6507 42.6928 71.992 42.6501 72.408H40.4581ZM49.9083 78.728V76.968L55.1403 69.48H57.7483V76.776H59.1562V78.728H57.7483V81H55.5083V78.728H49.9083ZM55.6523 71.88L52.3723 76.776H55.6523V71.88ZM60.6144 72.408C60.6677 71.3413 61.041 70.52 61.7344 69.944C62.4384 69.3573 63.361 69.064 64.5024 69.064C65.281 69.064 65.9477 69.2027 66.5024 69.48C67.057 69.7467 67.473 70.1147 67.7504 70.584C68.0384 71.0427 68.1824 71.5653 68.1824 72.152C68.1824 72.824 68.0064 73.3947 67.6544 73.864C67.313 74.3227 66.9024 74.632 66.4224 74.792V74.856C67.041 75.048 67.521 75.3893 67.8624 75.88C68.2144 76.3707 68.3904 77 68.3904 77.768C68.3904 78.408 68.241 78.9787 67.9424 79.48C67.6544 79.9813 67.2224 80.376 66.6464 80.664C66.081 80.9413 65.3984 81.08 64.5984 81.08C63.393 81.08 62.4117 80.776 61.6544 80.168C60.897 79.56 60.497 78.664 60.4544 77.48H62.6304C62.6517 78.0027 62.8277 78.424 63.1584 78.744C63.4997 79.0533 63.9637 79.208 64.5504 79.208C65.0944 79.208 65.5104 79.0587 65.7984 78.76C66.097 78.4507 66.2464 78.056 66.2464 77.576C66.2464 76.936 66.0437 76.4773 65.6384 76.2C65.233 75.9227 64.6037 75.784 63.7504 75.784H63.2864V73.944H63.7504C65.265 73.944 66.0224 73.4373 66.0224 72.424C66.0224 71.9653 65.8837 71.608 65.6064 71.352C65.3397 71.096 64.9504 70.968 64.4384 70.968C63.937 70.968 63.5477 71.1067 63.2704 71.384C63.0037 71.6507 62.849 71.992 62.8064 72.408H60.6144ZM80.021 72.248C79.9143 71.8 79.7277 71.464 79.461 71.24C79.205 71.016 78.8317 70.904 78.341 70.904C77.605 70.904 77.061 71.2027 76.709 71.8C76.3677 72.3867 76.1917 73.3467 76.181 74.68C76.437 74.2533 76.8103 73.9227 77.301 73.688C77.7917 73.4427 78.325 73.32 78.901 73.32C79.5943 73.32 80.2077 73.4693 80.741 73.768C81.2743 74.0667 81.6903 74.504 81.989 75.08C82.2877 75.6453 82.437 76.328 82.437 77.128C82.437 77.8853 82.2823 78.5627 81.973 79.16C81.6743 79.7467 81.2317 80.2053 80.645 80.536C80.0583 80.8667 79.3597 81.032 78.549 81.032C77.4397 81.032 76.565 80.7867 75.925 80.296C75.2957 79.8053 74.853 79.1227 74.597 78.248C74.3517 77.3627 74.229 76.2747 74.229 74.984C74.229 73.032 74.565 71.56 75.237 70.568C75.909 69.5653 76.9703 69.064 78.421 69.064C79.541 69.064 80.4103 69.368 81.029 69.976C81.6477 70.584 82.005 71.3413 82.101 72.248H80.021ZM78.389 75.16C77.8237 75.16 77.349 75.3253 76.965 75.656C76.581 75.9867 76.389 76.4667 76.389 77.096C76.389 77.7253 76.565 78.2213 76.917 78.584C77.2797 78.9467 77.7863 79.128 78.437 79.128C79.013 79.128 79.4663 78.952 79.797 78.6C80.1383 78.248 80.309 77.7733 80.309 77.176C80.309 76.5573 80.1437 76.0667 79.813 75.704C79.493 75.3413 79.0183 75.16 78.389 75.16ZM91.6314 71.032L87.3754 81H85.1034L89.3914 71.288H83.9194V69.368H91.6314V71.032ZM99.021 72.248C98.9143 71.8 98.7277 71.464 98.461 71.24C98.205 71.016 97.8317 70.904 97.341 70.904C96.605 70.904 96.061 71.2027 95.709 71.8C95.3677 72.3867 95.1917 73.3467 95.181 74.68C95.437 74.2533 95.8103 73.9227 96.301 73.688C96.7917 73.4427 97.325 73.32 97.901 73.32C98.5943 73.32 99.2077 73.4693 99.741 73.768C100.274 74.0667 100.69 74.504 100.989 75.08C101.288 75.6453 101.437 76.328 101.437 77.128C101.437 77.8853 101.282 78.5627 100.973 79.16C100.674 79.7467 100.232 80.2053 99.645 80.536C99.0583 80.8667 98.3597 81.032 97.549 81.032C96.4397 81.032 95.565 80.7867 94.925 80.296C94.2957 79.8053 93.853 79.1227 93.597 78.248C93.3517 77.3627 93.229 76.2747 93.229 74.984C93.229 73.032 93.565 71.56 94.237 70.568C94.909 69.5653 95.9703 69.064 97.421 69.064C98.541 69.064 99.4103 69.368 100.029 69.976C100.648 70.584 101.005 71.3413 101.101 72.248H99.021ZM97.389 75.16C96.8237 75.16 96.349 75.3253 95.965 75.656C95.581 75.9867 95.389 76.4667 95.389 77.096C95.389 77.7253 95.565 78.2213 95.917 78.584C96.2797 78.9467 96.7863 79.128 97.437 79.128C98.013 79.128 98.4663 78.952 98.797 78.6C99.1383 78.248 99.309 77.7733 99.309 77.176C99.309 76.5573 99.1437 76.0667 98.813 75.704C98.493 75.3413 98.0183 75.16 97.389 75.16ZM105.159 74.824C104.093 74.2693 103.559 73.4107 103.559 72.248C103.559 71.672 103.703 71.1493 103.991 70.68C104.29 70.2 104.733 69.8213 105.319 69.544C105.917 69.256 106.642 69.112 107.495 69.112C108.349 69.112 109.069 69.256 109.655 69.544C110.253 69.8213 110.695 70.2 110.983 70.68C111.282 71.1493 111.431 71.672 111.431 72.248C111.431 72.8347 111.287 73.352 110.999 73.8C110.711 74.2373 110.327 74.5787 109.847 74.824C110.434 75.08 110.893 75.4533 111.223 75.944C111.554 76.4347 111.719 77.016 111.719 77.688C111.719 78.4133 111.533 79.048 111.159 79.592C110.797 80.1253 110.295 80.536 109.655 80.824C109.015 81.112 108.295 81.256 107.495 81.256C106.695 81.256 105.975 81.112 105.335 80.824C104.706 80.536 104.205 80.1253 103.831 79.592C103.469 79.048 103.287 78.4133 103.287 77.688C103.287 77.016 103.453 76.4347 103.783 75.944C104.114 75.4427 104.573 75.0693 105.159 74.824ZM109.255 72.568C109.255 72.0453 109.095 71.64 108.775 71.352C108.466 71.064 108.039 70.92 107.495 70.92C106.962 70.92 106.535 71.064 106.215 71.352C105.906 71.64 105.751 72.0507 105.751 72.584C105.751 73.064 105.911 73.448 106.231 73.736C106.562 74.024 106.983 74.168 107.495 74.168C108.007 74.168 108.429 74.024 108.759 73.736C109.09 73.4373 109.255 73.048 109.255 72.568ZM107.495 75.8C106.887 75.8 106.391 75.9547 106.007 76.264C105.634 76.5733 105.447 77.016 105.447 77.592C105.447 78.1253 105.629 78.5627 105.991 78.904C106.365 79.2347 106.866 79.4 107.495 79.4C108.125 79.4 108.621 79.2293 108.983 78.888C109.346 78.5467 109.527 78.1147 109.527 77.592C109.527 77.0267 109.341 76.5893 108.967 76.28C108.594 75.96 108.103 75.8 107.495 75.8ZM124.725 71.032L120.469 81H118.197L122.485 71.288H117.013V69.368H124.725V71.032ZM132.115 72.248C132.008 71.8 131.821 71.464 131.555 71.24C131.299 71.016 130.925 70.904 130.435 70.904C129.699 70.904 129.155 71.2027 128.803 71.8C128.461 72.3867 128.285 73.3467 128.275 74.68C128.531 74.2533 128.904 73.9227 129.395 73.688C129.885 73.4427 130.419 73.32 130.995 73.32C131.688 73.32 132.301 73.4693 132.835 73.768C133.368 74.0667 133.784 74.504 134.083 75.08C134.381 75.6453 134.531 76.328 134.531 77.128C134.531 77.8853 134.376 78.5627 134.067 79.16C133.768 79.7467 133.325 80.2053 132.739 80.536C132.152 80.8667 131.453 81.032 130.643 81.032C129.533 81.032 128.659 80.7867 128.019 80.296C127.389 79.8053 126.947 79.1227 126.691 78.248C126.445 77.3627 126.323 76.2747 126.323 74.984C126.323 73.032 126.659 71.56 127.331 70.568C128.003 69.5653 129.064 69.064 130.515 69.064C131.635 69.064 132.504 69.368 133.123 69.976C133.741 70.584 134.099 71.3413 134.195 72.248H132.115ZM130.483 75.16C129.917 75.16 129.443 75.3253 129.059 75.656C128.675 75.9867 128.483 76.4667 128.483 77.096C128.483 77.7253 128.659 78.2213 129.011 78.584C129.373 78.9467 129.88 79.128 130.531 79.128C131.107 79.128 131.56 78.952 131.891 78.6C132.232 78.248 132.403 77.7733 132.403 77.176C132.403 76.5573 132.237 76.0667 131.907 75.704C131.587 75.3413 131.112 75.16 130.483 75.16ZM138.253 74.824C137.186 74.2693 136.653 73.4107 136.653 72.248C136.653 71.672 136.797 71.1493 137.085 70.68C137.384 70.2 137.826 69.8213 138.413 69.544C139.01 69.256 139.736 69.112 140.589 69.112C141.442 69.112 142.162 69.256 142.749 69.544C143.346 69.8213 143.789 70.2 144.077 70.68C144.376 71.1493 144.525 71.672 144.525 72.248C144.525 72.8347 144.381 73.352 144.093 73.8C143.805 74.2373 143.421 74.5787 142.941 74.824C143.528 75.08 143.986 75.4533 144.317 75.944C144.648 76.4347 144.813 77.016 144.813 77.688C144.813 78.4133 144.626 79.048 144.253 79.592C143.89 80.1253 143.389 80.536 142.749 80.824C142.109 81.112 141.389 81.256 140.589 81.256C139.789 81.256 139.069 81.112 138.429 80.824C137.8 80.536 137.298 80.1253 136.925 79.592C136.562 79.048 136.381 78.4133 136.381 77.688C136.381 77.016 136.546 76.4347 136.877 75.944C137.208 75.4427 137.666 75.0693 138.253 74.824ZM142.349 72.568C142.349 72.0453 142.189 71.64 141.869 71.352C141.56 71.064 141.133 70.92 140.589 70.92C140.056 70.92 139.629 71.064 139.309 71.352C139 71.64 138.845 72.0507 138.845 72.584C138.845 73.064 139.005 73.448 139.325 73.736C139.656 74.024 140.077 74.168 140.589 74.168C141.101 74.168 141.522 74.024 141.853 73.736C142.184 73.4373 142.349 73.048 142.349 72.568ZM140.589 75.8C139.981 75.8 139.485 75.9547 139.101 76.264C138.728 76.5733 138.541 77.016 138.541 77.592C138.541 78.1253 138.722 78.5627 139.085 78.904C139.458 79.2347 139.96 79.4 140.589 79.4C141.218 79.4 141.714 79.2293 142.077 78.888C142.44 78.5467 142.621 78.1147 142.621 77.592C142.621 77.0267 142.434 76.5893 142.061 76.28C141.688 75.96 141.197 75.8 140.589 75.8ZM146.486 78.728V76.968L151.718 69.48H154.326V76.776H155.734V78.728H154.326V81H152.086V78.728H146.486ZM152.23 71.88L148.95 76.776H152.23V71.88ZM161.005 72.408C161.058 71.3413 161.432 70.52 162.125 69.944C162.829 69.3573 163.752 69.064 164.893 69.064C165.672 69.064 166.338 69.2027 166.893 69.48C167.448 69.7467 167.864 70.1147 168.141 70.584C168.429 71.0427 168.573 71.5653 168.573 72.152C168.573 72.824 168.397 73.3947 168.045 73.864C167.704 74.3227 167.293 74.632 166.813 74.792V74.856C167.432 75.048 167.912 75.3893 168.253 75.88C168.605 76.3707 168.781 77 168.781 77.768C168.781 78.408 168.632 78.9787 168.333 79.48C168.045 79.9813 167.613 80.376 167.037 80.664C166.472 80.9413 165.789 81.08 164.989 81.08C163.784 81.08 162.802 80.776 162.045 80.168C161.288 79.56 160.888 78.664 160.845 77.48H163.021C163.042 78.0027 163.218 78.424 163.549 78.744C163.89 79.0533 164.354 79.208 164.941 79.208C165.485 79.208 165.901 79.0587 166.189 78.76C166.488 78.4507 166.637 78.056 166.637 77.576C166.637 76.936 166.434 76.4773 166.029 76.2C165.624 75.9227 164.994 75.784 164.141 75.784H163.677V73.944H164.141C165.656 73.944 166.413 73.4373 166.413 72.424C166.413 71.9653 166.274 71.608 165.997 71.352C165.73 71.096 165.341 70.968 164.829 70.968C164.328 70.968 163.938 71.1067 163.661 71.384C163.394 71.6507 163.24 71.992 163.197 72.408H161.005ZM170.583 72.408C170.636 71.3413 171.01 70.52 171.703 69.944C172.407 69.3573 173.33 69.064 174.471 69.064C175.25 69.064 175.916 69.2027 176.471 69.48C177.026 69.7467 177.442 70.1147 177.719 70.584C178.007 71.0427 178.151 71.5653 178.151 72.152C178.151 72.824 177.975 73.3947 177.623 73.864C177.282 74.3227 176.871 74.632 176.391 74.792V74.856C177.01 75.048 177.49 75.3893 177.831 75.88C178.183 76.3707 178.359 77 178.359 77.768C178.359 78.408 178.21 78.9787 177.911 79.48C177.623 79.9813 177.191 80.376 176.615 80.664C176.05 80.9413 175.367 81.08 174.567 81.08C173.362 81.08 172.38 80.776 171.623 80.168C170.866 79.56 170.466 78.664 170.423 77.48H172.599C172.62 78.0027 172.796 78.424 173.127 78.744C173.468 79.0533 173.932 79.208 174.519 79.208C175.063 79.208 175.479 79.0587 175.767 78.76C176.066 78.4507 176.215 78.056 176.215 77.576C176.215 76.936 176.012 76.4773 175.607 76.2C175.202 75.9227 174.572 75.784 173.719 75.784H173.255V73.944H173.719C175.234 73.944 175.991 73.4373 175.991 72.424C175.991 71.9653 175.852 71.608 175.575 71.352C175.308 71.096 174.919 70.968 174.407 70.968C173.906 70.968 173.516 71.1067 173.239 71.384C172.972 71.6507 172.818 71.992 172.775 72.408H170.583ZM180.833 78.472C181.857 77.6187 182.673 76.9093 183.281 76.344C183.889 75.768 184.396 75.1707 184.801 74.552C185.207 73.9333 185.409 73.3253 185.409 72.728C185.409 72.184 185.281 71.7573 185.025 71.448C184.769 71.1387 184.375 70.984 183.841 70.984C183.308 70.984 182.897 71.1653 182.609 71.528C182.321 71.88 182.172 72.3653 182.161 72.984H179.985C180.028 71.704 180.407 70.7333 181.121 70.072C181.847 69.4107 182.764 69.08 183.873 69.08C185.089 69.08 186.023 69.4053 186.673 70.056C187.324 70.696 187.649 71.544 187.649 72.6C187.649 73.432 187.425 74.2267 186.977 74.984C186.529 75.7413 186.017 76.4027 185.441 76.968C184.865 77.5227 184.113 78.1947 183.185 78.984H187.905V80.84H180.001V79.176L180.833 78.472ZM190.021 78.472C191.045 77.6187 191.861 76.9093 192.469 76.344C193.077 75.768 193.583 75.1707 193.989 74.552C194.394 73.9333 194.597 73.3253 194.597 72.728C194.597 72.184 194.469 71.7573 194.213 71.448C193.957 71.1387 193.562 70.984 193.029 70.984C192.495 70.984 192.085 71.1653 191.797 71.528C191.509 71.88 191.359 72.3653 191.349 72.984H189.173C189.215 71.704 189.594 70.7333 190.309 70.072C191.034 69.4107 191.951 69.08 193.061 69.08C194.277 69.08 195.21 69.4053 195.861 70.056C196.511 70.696 196.837 71.544 196.837 72.6C196.837 73.432 196.613 74.2267 196.165 74.984C195.717 75.7413 195.205 76.4027 194.629 76.968C194.053 77.5227 193.301 78.1947 192.373 78.984H197.093V80.84H189.189V79.176L190.021 78.472Z" fill="white"/>
<path d="M29.752 78.728V76.968L34.984 69.48H37.592V76.776H39V78.728H37.592V81H35.352V78.728H29.752ZM35.496 71.88L32.216 76.776H35.496V71.88ZM40.4581 72.408C40.5115 71.3413 40.8848 70.52 41.5781 69.944C42.2821 69.3573 43.2048 69.064 44.3461 69.064C45.1248 69.064 45.7915 69.2027 46.3461 69.48C46.9008 69.7467 47.3168 70.1147 47.5941 70.584C47.8821 71.0427 48.0261 71.5653 48.0261 72.152C48.0261 72.824 47.8501 73.3947 47.4981 73.864C47.1568 74.3227 46.7461 74.632 46.2661 74.792V74.856C46.8848 75.048 47.3648 75.3893 47.7061 75.88C48.0581 76.3707 48.2341 77 48.2341 77.768C48.2341 78.408 48.0848 78.9787 47.7861 79.48C47.4981 79.9813 47.0661 80.376 46.4901 80.664C45.9248 80.9413 45.2421 81.08 44.4421 81.08C43.2368 81.08 42.2555 80.776 41.4981 80.168C40.7408 79.56 40.3408 78.664 40.2981 77.48H42.4741C42.4955 78.0027 42.6715 78.424 43.0021 78.744C43.3435 79.0533 43.8075 79.208 44.3941 79.208C44.9381 79.208 45.3541 79.0587 45.6421 78.76C45.9408 78.4507 46.0901 78.056 46.0901 77.576C46.0901 76.936 45.8875 76.4773 45.4821 76.2C45.0768 75.9227 44.4475 75.784 43.5941 75.784H43.1301V73.944H43.5941C45.1088 73.944 45.8661 73.4373 45.8661 72.424C45.8661 71.9653 45.7275 71.608 45.4501 71.352C45.1835 71.096 44.7941 70.968 44.2821 70.968C43.7808 70.968 43.3915 71.1067 43.1141 71.384C42.8475 71.6507 42.6928 71.992 42.6501 72.408H40.4581ZM49.9083 78.728V76.968L55.1403 69.48H57.7483V76.776H59.1562V78.728H57.7483V81H55.5083V78.728H49.9083ZM55.6523 71.88L52.3723 76.776H55.6523V71.88ZM60.6144 72.408C60.6677 71.3413 61.041 70.52 61.7344 69.944C62.4384 69.3573 63.361 69.064 64.5024 69.064C65.281 69.064 65.9477 69.2027 66.5024 69.48C67.057 69.7467 67.473 70.1147 67.7504 70.584C68.0384 71.0427 68.1824 71.5653 68.1824 72.152C68.1824 72.824 68.0064 73.3947 67.6544 73.864C67.313 74.3227 66.9024 74.632 66.4224 74.792V74.856C67.041 75.048 67.521 75.3893 67.8624 75.88C68.2144 76.3707 68.3904 77 68.3904 77.768C68.3904 78.408 68.241 78.9787 67.9424 79.48C67.6544 79.9813 67.2224 80.376 66.6464 80.664C66.081 80.9413 65.3984 81.08 64.5984 81.08C63.393 81.08 62.4117 80.776 61.6544 80.168C60.897 79.56 60.497 78.664 60.4544 77.48H62.6304C62.6517 78.0027 62.8277 78.424 63.1584 78.744C63.4997 79.0533 63.9637 79.208 64.5504 79.208C65.0944 79.208 65.5104 79.0587 65.7984 78.76C66.097 78.4507 66.2464 78.056 66.2464 77.576C66.2464 76.936 66.0437 76.4773 65.6384 76.2C65.233 75.9227 64.6037 75.784 63.7504 75.784H63.2864V73.944H63.7504C65.265 73.944 66.0224 73.4373 66.0224 72.424C66.0224 71.9653 65.8837 71.608 65.6064 71.352C65.3397 71.096 64.9504 70.968 64.4384 70.968C63.937 70.968 63.5477 71.1067 63.2704 71.384C63.0037 71.6507 62.849 71.992 62.8064 72.408H60.6144ZM80.021 72.248C79.9143 71.8 79.7277 71.464 79.461 71.24C79.205 71.016 78.8317 70.904 78.341 70.904C77.605 70.904 77.061 71.2027 76.709 71.8C76.3677 72.3867 76.1917 73.3467 76.181 74.68C76.437 74.2533 76.8103 73.9227 77.301 73.688C77.7917 73.4427 78.325 73.32 78.901 73.32C79.5943 73.32 80.2077 73.4693 80.741 73.768C81.2743 74.0667 81.6903 74.504 81.989 75.08C82.2877 75.6453 82.437 76.328 82.437 77.128C82.437 77.8853 82.2823 78.5627 81.973 79.16C81.6743 79.7467 81.2317 80.2053 80.645 80.536C80.0583 80.8667 79.3597 81.032 78.549 81.032C77.4397 81.032 76.565 80.7867 75.925 80.296C75.2957 79.8053 74.853 79.1227 74.597 78.248C74.3517 77.3627 74.229 76.2747 74.229 74.984C74.229 73.032 74.565 71.56 75.237 70.568C75.909 69.5653 76.9703 69.064 78.421 69.064C79.541 69.064 80.4103 69.368 81.029 69.976C81.6477 70.584 82.005 71.3413 82.101 72.248H80.021ZM78.389 75.16C77.8237 75.16 77.349 75.3253 76.965 75.656C76.581 75.9867 76.389 76.4667 76.389 77.096C76.389 77.7253 76.565 78.2213 76.917 78.584C77.2797 78.9467 77.7863 79.128 78.437 79.128C79.013 79.128 79.4663 78.952 79.797 78.6C80.1383 78.248 80.309 77.7733 80.309 77.176C80.309 76.5573 80.1437 76.0667 79.813 75.704C79.493 75.3413 79.0183 75.16 78.389 75.16ZM91.6314 71.032L87.3754 81H85.1034L89.3914 71.288H83.9194V69.368H91.6314V71.032ZM99.021 72.248C98.9143 71.8 98.7277 71.464 98.461 71.24C98.205 71.016 97.8317 70.904 97.341 70.904C96.605 70.904 96.061 71.2027 95.709 71.8C95.3677 72.3867 95.1917 73.3467 95.181 74.68C95.437 74.2533 95.8103 73.9227 96.301 73.688C96.7917 73.4427 97.325 73.32 97.901 73.32C98.5943 73.32 99.2077 73.4693 99.741 73.768C100.274 74.0667 100.69 74.504 100.989 75.08C101.288 75.6453 101.437 76.328 101.437 77.128C101.437 77.8853 101.282 78.5627 100.973 79.16C100.674 79.7467 100.232 80.2053 99.645 80.536C99.0583 80.8667 98.3597 81.032 97.549 81.032C96.4397 81.032 95.565 80.7867 94.925 80.296C94.2957 79.8053 93.853 79.1227 93.597 78.248C93.3517 77.3627 93.229 76.2747 93.229 74.984C93.229 73.032 93.565 71.56 94.237 70.568C94.909 69.5653 95.9703 69.064 97.421 69.064C98.541 69.064 99.4103 69.368 100.029 69.976C100.648 70.584 101.005 71.3413 101.101 72.248H99.021ZM97.389 75.16C96.8237 75.16 96.349 75.3253 95.965 75.656C95.581 75.9867 95.389 76.4667 95.389 77.096C95.389 77.7253 95.565 78.2213 95.917 78.584C96.2797 78.9467 96.7863 79.128 97.437 79.128C98.013 79.128 98.4663 78.952 98.797 78.6C99.1383 78.248 99.309 77.7733 99.309 77.176C99.309 76.5573 99.1437 76.0667 98.813 75.704C98.493 75.3413 98.0183 75.16 97.389 75.16ZM105.159 74.824C104.093 74.2693 103.559 73.4107 103.559 72.248C103.559 71.672 103.703 71.1493 103.991 70.68C104.29 70.2 104.733 69.8213 105.319 69.544C105.917 69.256 106.642 69.112 107.495 69.112C108.349 69.112 109.069 69.256 109.655 69.544C110.253 69.8213 110.695 70.2 110.983 70.68C111.282 71.1493 111.431 71.672 111.431 72.248C111.431 72.8347 111.287 73.352 110.999 73.8C110.711 74.2373 110.327 74.5787 109.847 74.824C110.434 75.08 110.893 75.4533 111.223 75.944C111.554 76.4347 111.719 77.016 111.719 77.688C111.719 78.4133 111.533 79.048 111.159 79.592C110.797 80.1253 110.295 80.536 109.655 80.824C109.015 81.112 108.295 81.256 107.495 81.256C106.695 81.256 105.975 81.112 105.335 80.824C104.706 80.536 104.205 80.1253 103.831 79.592C103.469 79.048 103.287 78.4133 103.287 77.688C103.287 77.016 103.453 76.4347 103.783 75.944C104.114 75.4427 104.573 75.0693 105.159 74.824ZM109.255 72.568C109.255 72.0453 109.095 71.64 108.775 71.352C108.466 71.064 108.039 70.92 107.495 70.92C106.962 70.92 106.535 71.064 106.215 71.352C105.906 71.64 105.751 72.0507 105.751 72.584C105.751 73.064 105.911 73.448 106.231 73.736C106.562 74.024 106.983 74.168 107.495 74.168C108.007 74.168 108.429 74.024 108.759 73.736C109.09 73.4373 109.255 73.048 109.255 72.568ZM107.495 75.8C106.887 75.8 106.391 75.9547 106.007 76.264C105.634 76.5733 105.447 77.016 105.447 77.592C105.447 78.1253 105.629 78.5627 105.991 78.904C106.365 79.2347 106.866 79.4 107.495 79.4C108.125 79.4 108.621 79.2293 108.983 78.888C109.346 78.5467 109.527 78.1147 109.527 77.592C109.527 77.0267 109.341 76.5893 108.967 76.28C108.594 75.96 108.103 75.8 107.495 75.8ZM124.725 71.032L120.469 81H118.197L122.485 71.288H117.013V69.368H124.725V71.032ZM132.115 72.248C132.008 71.8 131.821 71.464 131.555 71.24C131.299 71.016 130.925 70.904 130.435 70.904C129.699 70.904 129.155 71.2027 128.803 71.8C128.461 72.3867 128.285 73.3467 128.275 74.68C128.531 74.2533 128.904 73.9227 129.395 73.688C129.885 73.4427 130.419 73.32 130.995 73.32C131.688 73.32 132.301 73.4693 132.835 73.768C133.368 74.0667 133.784 74.504 134.083 75.08C134.381 75.6453 134.531 76.328 134.531 77.128C134.531 77.8853 134.376 78.5627 134.067 79.16C133.768 79.7467 133.325 80.2053 132.739 80.536C132.152 80.8667 131.453 81.032 130.643 81.032C129.533 81.032 128.659 80.7867 128.019 80.296C127.389 79.8053 126.947 79.1227 126.691 78.248C126.445 77.3627 126.323 76.2747 126.323 74.984C126.323 73.032 126.659 71.56 127.331 70.568C128.003 69.5653 129.064 69.064 130.515 69.064C131.635 69.064 132.504 69.368 133.123 69.976C133.741 70.584 134.099 71.3413 134.195 72.248H132.115ZM130.483 75.16C129.917 75.16 129.443 75.3253 129.059 75.656C128.675 75.9867 128.483 76.4667 128.483 77.096C128.483 77.7253 128.659 78.2213 129.011 78.584C129.373 78.9467 129.88 79.128 130.531 79.128C131.107 79.128 131.56 78.952 131.891 78.6C132.232 78.248 132.403 77.7733 132.403 77.176C132.403 76.5573 132.237 76.0667 131.907 75.704C131.587 75.3413 131.112 75.16 130.483 75.16ZM138.253 74.824C137.186 74.2693 136.653 73.4107 136.653 72.248C136.653 71.672 136.797 71.1493 137.085 70.68C137.384 70.2 137.826 69.8213 138.413 69.544C139.01 69.256 139.736 69.112 140.589 69.112C141.442 69.112 142.162 69.256 142.749 69.544C143.346 69.8213 143.789 70.2 144.077 70.68C144.376 71.1493 144.525 71.672 144.525 72.248C144.525 72.8347 144.381 73.352 144.093 73.8C143.805 74.2373 143.421 74.5787 142.941 74.824C143.528 75.08 143.986 75.4533 144.317 75.944C144.648 76.4347 144.813 77.016 144.813 77.688C144.813 78.4133 144.626 79.048 144.253 79.592C143.89 80.1253 143.389 80.536 142.749 80.824C142.109 81.112 141.389 81.256 140.589 81.256C139.789 81.256 139.069 81.112 138.429 80.824C137.8 80.536 137.298 80.1253 136.925 79.592C136.562 79.048 136.381 78.4133 136.381 77.688C136.381 77.016 136.546 76.4347 136.877 75.944C137.208 75.4427 137.666 75.0693 138.253 74.824ZM142.349 72.568C142.349 72.0453 142.189 71.64 141.869 71.352C141.56 71.064 141.133 70.92 140.589 70.92C140.056 70.92 139.629 71.064 139.309 71.352C139 71.64 138.845 72.0507 138.845 72.584C138.845 73.064 139.005 73.448 139.325 73.736C139.656 74.024 140.077 74.168 140.589 74.168C141.101 74.168 141.522 74.024 141.853 73.736C142.184 73.4373 142.349 73.048 142.349 72.568ZM140.589 75.8C139.981 75.8 139.485 75.9547 139.101 76.264C138.728 76.5733 138.541 77.016 138.541 77.592C138.541 78.1253 138.722 78.5627 139.085 78.904C139.458 79.2347 139.96 79.4 140.589 79.4C141.218 79.4 141.714 79.2293 142.077 78.888C142.44 78.5467 142.621 78.1147 142.621 77.592C142.621 77.0267 142.434 76.5893 142.061 76.28C141.688 75.96 141.197 75.8 140.589 75.8ZM146.486 78.728V76.968L151.718 69.48H154.326V76.776H155.734V78.728H154.326V81H152.086V78.728H146.486ZM152.23 71.88L148.95 76.776H152.23V71.88ZM161.005 72.408C161.058 71.3413 161.432 70.52 162.125 69.944C162.829 69.3573 163.752 69.064 164.893 69.064C165.672 69.064 166.338 69.2027 166.893 69.48C167.448 69.7467 167.864 70.1147 168.141 70.584C168.429 71.0427 168.573 71.5653 168.573 72.152C168.573 72.824 168.397 73.3947 168.045 73.864C167.704 74.3227 167.293 74.632 166.813 74.792V74.856C167.432 75.048 167.912 75.3893 168.253 75.88C168.605 76.3707 168.781 77 168.781 77.768C168.781 78.408 168.632 78.9787 168.333 79.48C168.045 79.9813 167.613 80.376 167.037 80.664C166.472 80.9413 165.789 81.08 164.989 81.08C163.784 81.08 162.802 80.776 162.045 80.168C161.288 79.56 160.888 78.664 160.845 77.48H163.021C163.042 78.0027 163.218 78.424 163.549 78.744C163.89 79.0533 164.354 79.208 164.941 79.208C165.485 79.208 165.901 79.0587 166.189 78.76C166.488 78.4507 166.637 78.056 166.637 77.576C166.637 76.936 166.434 76.4773 166.029 76.2C165.624 75.9227 164.994 75.784 164.141 75.784H163.677V73.944H164.141C165.656 73.944 166.413 73.4373 166.413 72.424C166.413 71.9653 166.274 71.608 165.997 71.352C165.73 71.096 165.341 70.968 164.829 70.968C164.328 70.968 163.938 71.1067 163.661 71.384C163.394 71.6507 163.24 71.992 163.197 72.408H161.005ZM170.583 72.408C170.636 71.3413 171.01 70.52 171.703 69.944C172.407 69.3573 173.33 69.064 174.471 69.064C175.25 69.064 175.916 69.2027 176.471 69.48C177.026 69.7467 177.442 70.1147 177.719 70.584C178.007 71.0427 178.151 71.5653 178.151 72.152C178.151 72.824 177.975 73.3947 177.623 73.864C177.282 74.3227 176.871 74.632 176.391 74.792V74.856C177.01 75.048 177.49 75.3893 177.831 75.88C178.183 76.3707 178.359 77 178.359 77.768C178.359 78.408 178.21 78.9787 177.911 79.48C177.623 79.9813 177.191 80.376 176.615 80.664C176.05 80.9413 175.367 81.08 174.567 81.08C173.362 81.08 172.38 80.776 171.623 80.168C170.866 79.56 170.466 78.664 170.423 77.48H172.599C172.62 78.0027 172.796 78.424 173.127 78.744C173.468 79.0533 173.932 79.208 174.519 79.208C175.063 79.208 175.479 79.0587 175.767 78.76C176.066 78.4507 176.215 78.056 176.215 77.576C176.215 76.936 176.012 76.4773 175.607 76.2C175.202 75.9227 174.572 75.784 173.719 75.784H173.255V73.944H173.719C175.234 73.944 175.991 73.4373 175.991 72.424C175.991 71.9653 175.852 71.608 175.575 71.352C175.308 71.096 174.919 70.968 174.407 70.968C173.906 70.968 173.516 71.1067 173.239 71.384C172.972 71.6507 172.818 71.992 172.775 72.408H170.583ZM180.833 78.472C181.857 77.6187 182.673 76.9093 183.281 76.344C183.889 75.768 184.396 75.1707 184.801 74.552C185.207 73.9333 185.409 73.3253 185.409 72.728C185.409 72.184 185.281 71.7573 185.025 71.448C184.769 71.1387 184.375 70.984 183.841 70.984C183.308 70.984 182.897 71.1653 182.609 71.528C182.321 71.88 182.172 72.3653 182.161 72.984H179.985C180.028 71.704 180.407 70.7333 181.121 70.072C181.847 69.4107 182.764 69.08 183.873 69.08C185.089 69.08 186.023 69.4053 186.673 70.056C187.324 70.696 187.649 71.544 187.649 72.6C187.649 73.432 187.425 74.2267 186.977 74.984C186.529 75.7413 186.017 76.4027 185.441 76.968C184.865 77.5227 184.113 78.1947 183.185 78.984H187.905V80.84H180.001V79.176L180.833 78.472ZM190.021 78.472C191.045 77.6187 191.861 76.9093 192.469 76.344C193.077 75.768 193.583 75.1707 193.989 74.552C194.394 73.9333 194.597 73.3253 194.597 72.728C194.597 72.184 194.469 71.7573 194.213 71.448C193.957 71.1387 193.562 70.984 193.029 70.984C192.495 70.984 192.085 71.1653 191.797 71.528C191.509 71.88 191.359 72.3653 191.349 72.984H189.173C189.215 71.704 189.594 70.7333 190.309 70.072C191.034 69.4107 191.951 69.08 193.061 69.08C194.277 69.08 195.21 69.4053 195.861 70.056C196.511 70.696 196.837 71.544 196.837 72.6C196.837 73.432 196.613 74.2267 196.165 74.984C195.717 75.7413 195.205 76.4027 194.629 76.968C194.053 77.5227 193.301 78.1947 192.373 78.984H197.093V80.84H189.189V79.176L190.021 78.472Z" fill="white"/>
<path d="M33.54 121.05V126.06C33.54 126.68 33.35 127.17 32.97 127.53C32.5967 127.89 32.1033 128.07 31.49 128.07C30.8767 128.07 30.38 127.89 30 127.53C29.6267 127.17 29.44 126.68 29.44 126.06H30.59C30.5967 126.367 30.6733 126.61 30.82 126.79C30.9733 126.97 31.1967 127.06 31.49 127.06C31.7833 127.06 32.0067 126.97 32.16 126.79C32.3133 126.603 32.39 126.36 32.39 126.06V121.05H33.54ZM35.0145 125.22C35.0145 124.667 35.1279 124.177 35.3545 123.75C35.5879 123.323 35.9012 122.993 36.2945 122.76C36.6945 122.52 37.1345 122.4 37.6145 122.4C38.0479 122.4 38.4245 122.487 38.7445 122.66C39.0712 122.827 39.3312 123.037 39.5245 123.29V122.49H40.6745V128H39.5245V127.18C39.3312 127.44 39.0679 127.657 38.7345 127.83C38.4012 128.003 38.0212 128.09 37.5945 128.09C37.1212 128.09 36.6879 127.97 36.2945 127.73C35.9012 127.483 35.5879 127.143 35.3545 126.71C35.1279 126.27 35.0145 125.773 35.0145 125.22ZM39.5245 125.24C39.5245 124.86 39.4445 124.53 39.2845 124.25C39.1312 123.97 38.9279 123.757 38.6745 123.61C38.4212 123.463 38.1479 123.39 37.8545 123.39C37.5612 123.39 37.2879 123.463 37.0345 123.61C36.7812 123.75 36.5745 123.96 36.4145 124.24C36.2612 124.513 36.1845 124.84 36.1845 125.22C36.1845 125.6 36.2612 125.933 36.4145 126.22C36.5745 126.507 36.7812 126.727 37.0345 126.88C37.2945 127.027 37.5679 127.1 37.8545 127.1C38.1479 127.1 38.4212 127.027 38.6745 126.88C38.9279 126.733 39.1312 126.52 39.2845 126.24C39.4445 125.953 39.5245 125.62 39.5245 125.24ZM48.8419 122.4C49.2752 122.4 49.6619 122.49 50.0019 122.67C50.3485 122.85 50.6185 123.117 50.8119 123.47C51.0119 123.823 51.1119 124.25 51.1119 124.75V128H49.9819V124.92C49.9819 124.427 49.8585 124.05 49.6119 123.79C49.3652 123.523 49.0285 123.39 48.6019 123.39C48.1752 123.39 47.8352 123.523 47.5819 123.79C47.3352 124.05 47.2119 124.427 47.2119 124.92V128H46.0819V124.92C46.0819 124.427 45.9585 124.05 45.7119 123.79C45.4652 123.523 45.1285 123.39 44.7019 123.39C44.2752 123.39 43.9352 123.523 43.6819 123.79C43.4352 124.05 43.3119 124.427 43.3119 124.92V128H42.1719V122.49H43.3119V123.12C43.4985 122.893 43.7352 122.717 44.0219 122.59C44.3085 122.463 44.6152 122.4 44.9419 122.4C45.3819 122.4 45.7752 122.493 46.1219 122.68C46.4685 122.867 46.7352 123.137 46.9219 123.49C47.0885 123.157 47.3485 122.893 47.7019 122.7C48.0552 122.5 48.4352 122.4 48.8419 122.4ZM57.6125 125.11C57.6125 125.317 57.5992 125.503 57.5725 125.67H53.3625C53.3958 126.11 53.5592 126.463 53.8525 126.73C54.1458 126.997 54.5058 127.13 54.9325 127.13C55.5458 127.13 55.9792 126.873 56.2325 126.36H57.4625C57.2958 126.867 56.9925 127.283 56.5525 127.61C56.1192 127.93 55.5792 128.09 54.9325 128.09C54.4058 128.09 53.9325 127.973 53.5125 127.74C53.0992 127.5 52.7725 127.167 52.5325 126.74C52.2992 126.307 52.1825 125.807 52.1825 125.24C52.1825 124.673 52.2958 124.177 52.5225 123.75C52.7558 123.317 53.0792 122.983 53.4925 122.75C53.9125 122.517 54.3925 122.4 54.9325 122.4C55.4525 122.4 55.9158 122.513 56.3225 122.74C56.7292 122.967 57.0458 123.287 57.2725 123.7C57.4992 124.107 57.6125 124.577 57.6125 125.11ZM56.4225 124.75C56.4158 124.33 56.2658 123.993 55.9725 123.74C55.6792 123.487 55.3158 123.36 54.8825 123.36C54.4892 123.36 54.1525 123.487 53.8725 123.74C53.5925 123.987 53.4258 124.323 53.3725 124.75H56.4225ZM60.7344 128.09C60.301 128.09 59.911 128.013 59.5644 127.86C59.2244 127.7 58.9544 127.487 58.7544 127.22C58.5544 126.947 58.4477 126.643 58.4344 126.31H59.6144C59.6344 126.543 59.7444 126.74 59.9444 126.9C60.151 127.053 60.4077 127.13 60.7144 127.13C61.0344 127.13 61.281 127.07 61.4544 126.95C61.6344 126.823 61.7244 126.663 61.7244 126.47C61.7244 126.263 61.6244 126.11 61.4244 126.01C61.231 125.91 60.921 125.8 60.4944 125.68C60.081 125.567 59.7444 125.457 59.4844 125.35C59.2244 125.243 58.9977 125.08 58.8044 124.86C58.6177 124.64 58.5244 124.35 58.5244 123.99C58.5244 123.697 58.611 123.43 58.7844 123.19C58.9577 122.943 59.2044 122.75 59.5244 122.61C59.851 122.47 60.2244 122.4 60.6444 122.4C61.271 122.4 61.7744 122.56 62.1544 122.88C62.541 123.193 62.7477 123.623 62.7744 124.17H61.6344C61.6144 123.923 61.5144 123.727 61.3344 123.58C61.1544 123.433 60.911 123.36 60.6044 123.36C60.3044 123.36 60.0744 123.417 59.9144 123.53C59.7544 123.643 59.6744 123.793 59.6744 123.98C59.6744 124.127 59.7277 124.25 59.8344 124.35C59.941 124.45 60.071 124.53 60.2244 124.59C60.3777 124.643 60.6044 124.713 60.9044 124.8C61.3044 124.907 61.631 125.017 61.8844 125.13C62.1444 125.237 62.3677 125.397 62.5544 125.61C62.741 125.823 62.8377 126.107 62.8444 126.46C62.8444 126.773 62.7577 127.053 62.5844 127.3C62.411 127.547 62.1644 127.74 61.8444 127.88C61.531 128.02 61.161 128.09 60.7344 128.09ZM66.2938 124.51C66.2938 123.83 66.4505 123.22 66.7638 122.68C67.0838 122.14 67.5138 121.72 68.0538 121.42C68.6005 121.113 69.1972 120.96 69.8438 120.96C70.5838 120.96 71.2405 121.143 71.8138 121.51C72.3938 121.87 72.8138 122.383 73.0738 123.05H71.7038C71.5238 122.683 71.2738 122.41 70.9538 122.23C70.6338 122.05 70.2638 121.96 69.8438 121.96C69.3838 121.96 68.9738 122.063 68.6138 122.27C68.2538 122.477 67.9705 122.773 67.7638 123.16C67.5638 123.547 67.4638 123.997 67.4638 124.51C67.4638 125.023 67.5638 125.473 67.7638 125.86C67.9705 126.247 68.2538 126.547 68.6138 126.76C68.9738 126.967 69.3838 127.07 69.8438 127.07C70.2638 127.07 70.6338 126.98 70.9538 126.8C71.2738 126.62 71.5238 126.347 71.7038 125.98H73.0738C72.8138 126.647 72.3938 127.16 71.8138 127.52C71.2405 127.88 70.5838 128.06 69.8438 128.06C69.1905 128.06 68.5938 127.91 68.0538 127.61C67.5138 127.303 67.0838 126.88 66.7638 126.34C66.4505 125.8 66.2938 125.19 66.2938 124.51ZM77.2582 122.4C77.6782 122.4 78.0515 122.49 78.3782 122.67C78.7115 122.85 78.9715 123.117 79.1582 123.47C79.3515 123.823 79.4482 124.25 79.4482 124.75V128H78.3182V124.92C78.3182 124.427 78.1949 124.05 77.9482 123.79C77.7015 123.523 77.3649 123.39 76.9382 123.39C76.5115 123.39 76.1715 123.523 75.9182 123.79C75.6715 124.05 75.5482 124.427 75.5482 124.92V128H74.4082V120.6H75.5482V123.13C75.7415 122.897 75.9849 122.717 76.2782 122.59C76.5782 122.463 76.9049 122.4 77.2582 122.4ZM85.8923 122.49V128H84.7523V127.35C84.5723 127.577 84.3357 127.757 84.0423 127.89C83.7557 128.017 83.449 128.08 83.1223 128.08C82.689 128.08 82.299 127.99 81.9523 127.81C81.6123 127.63 81.3423 127.363 81.1423 127.01C80.949 126.657 80.8523 126.23 80.8523 125.73V122.49H81.9823V125.56C81.9823 126.053 82.1057 126.433 82.3523 126.7C82.599 126.96 82.9357 127.09 83.3623 127.09C83.789 127.09 84.1257 126.96 84.3723 126.7C84.6257 126.433 84.7523 126.053 84.7523 125.56V122.49H85.8923ZM89.5765 125.25L92.1165 128H90.5765L88.5365 125.63V128H87.3965V120.6H88.5365V124.9L90.5365 122.49H92.1165L89.5765 125.25ZM100.334 122.49L98.6236 128H97.4236L96.3136 123.93L95.2036 128H94.0036L92.2836 122.49H93.4436L94.5936 126.92L95.7636 122.49H96.9536L98.0736 126.9L99.2136 122.49H100.334ZM106.176 122.49V128H105.036V127.35C104.856 127.577 104.619 127.757 104.326 127.89C104.039 128.017 103.732 128.08 103.406 128.08C102.972 128.08 102.582 127.99 102.236 127.81C101.896 127.63 101.626 127.363 101.426 127.01C101.232 126.657 101.136 126.23 101.136 125.73V122.49H102.266V125.56C102.266 126.053 102.389 126.433 102.636 126.7C102.882 126.96 103.219 127.09 103.646 127.09C104.072 127.09 104.409 126.96 104.656 126.7C104.909 126.433 105.036 126.053 105.036 125.56V122.49H106.176Z" fill="white"/>
<path d="M33.54 121.05V126.06C33.54 126.68 33.35 127.17 32.97 127.53C32.5967 127.89 32.1033 128.07 31.49 128.07C30.8767 128.07 30.38 127.89 30 127.53C29.6267 127.17 29.44 126.68 29.44 126.06H30.59C30.5967 126.367 30.6733 126.61 30.82 126.79C30.9733 126.97 31.1967 127.06 31.49 127.06C31.7833 127.06 32.0067 126.97 32.16 126.79C32.3133 126.603 32.39 126.36 32.39 126.06V121.05H33.54ZM35.0145 125.22C35.0145 124.667 35.1279 124.177 35.3545 123.75C35.5879 123.323 35.9012 122.993 36.2945 122.76C36.6945 122.52 37.1345 122.4 37.6145 122.4C38.0479 122.4 38.4245 122.487 38.7445 122.66C39.0712 122.827 39.3312 123.037 39.5245 123.29V122.49H40.6745V128H39.5245V127.18C39.3312 127.44 39.0679 127.657 38.7345 127.83C38.4012 128.003 38.0212 128.09 37.5945 128.09C37.1212 128.09 36.6879 127.97 36.2945 127.73C35.9012 127.483 35.5879 127.143 35.3545 126.71C35.1279 126.27 35.0145 125.773 35.0145 125.22ZM39.5245 125.24C39.5245 124.86 39.4445 124.53 39.2845 124.25C39.1312 123.97 38.9279 123.757 38.6745 123.61C38.4212 123.463 38.1479 123.39 37.8545 123.39C37.5612 123.39 37.2879 123.463 37.0345 123.61C36.7812 123.75 36.5745 123.96 36.4145 124.24C36.2612 124.513 36.1845 124.84 36.1845 125.22C36.1845 125.6 36.2612 125.933 36.4145 126.22C36.5745 126.507 36.7812 126.727 37.0345 126.88C37.2945 127.027 37.5679 127.1 37.8545 127.1C38.1479 127.1 38.4212 127.027 38.6745 126.88C38.9279 126.733 39.1312 126.52 39.2845 126.24C39.4445 125.953 39.5245 125.62 39.5245 125.24ZM48.8419 122.4C49.2752 122.4 49.6619 122.49 50.0019 122.67C50.3485 122.85 50.6185 123.117 50.8119 123.47C51.0119 123.823 51.1119 124.25 51.1119 124.75V128H49.9819V124.92C49.9819 124.427 49.8585 124.05 49.6119 123.79C49.3652 123.523 49.0285 123.39 48.6019 123.39C48.1752 123.39 47.8352 123.523 47.5819 123.79C47.3352 124.05 47.2119 124.427 47.2119 124.92V128H46.0819V124.92C46.0819 124.427 45.9585 124.05 45.7119 123.79C45.4652 123.523 45.1285 123.39 44.7019 123.39C44.2752 123.39 43.9352 123.523 43.6819 123.79C43.4352 124.05 43.3119 124.427 43.3119 124.92V128H42.1719V122.49H43.3119V123.12C43.4985 122.893 43.7352 122.717 44.0219 122.59C44.3085 122.463 44.6152 122.4 44.9419 122.4C45.3819 122.4 45.7752 122.493 46.1219 122.68C46.4685 122.867 46.7352 123.137 46.9219 123.49C47.0885 123.157 47.3485 122.893 47.7019 122.7C48.0552 122.5 48.4352 122.4 48.8419 122.4ZM57.6125 125.11C57.6125 125.317 57.5992 125.503 57.5725 125.67H53.3625C53.3958 126.11 53.5592 126.463 53.8525 126.73C54.1458 126.997 54.5058 127.13 54.9325 127.13C55.5458 127.13 55.9792 126.873 56.2325 126.36H57.4625C57.2958 126.867 56.9925 127.283 56.5525 127.61C56.1192 127.93 55.5792 128.09 54.9325 128.09C54.4058 128.09 53.9325 127.973 53.5125 127.74C53.0992 127.5 52.7725 127.167 52.5325 126.74C52.2992 126.307 52.1825 125.807 52.1825 125.24C52.1825 124.673 52.2958 124.177 52.5225 123.75C52.7558 123.317 53.0792 122.983 53.4925 122.75C53.9125 122.517 54.3925 122.4 54.9325 122.4C55.4525 122.4 55.9158 122.513 56.3225 122.74C56.7292 122.967 57.0458 123.287 57.2725 123.7C57.4992 124.107 57.6125 124.577 57.6125 125.11ZM56.4225 124.75C56.4158 124.33 56.2658 123.993 55.9725 123.74C55.6792 123.487 55.3158 123.36 54.8825 123.36C54.4892 123.36 54.1525 123.487 53.8725 123.74C53.5925 123.987 53.4258 124.323 53.3725 124.75H56.4225ZM60.7344 128.09C60.301 128.09 59.911 128.013 59.5644 127.86C59.2244 127.7 58.9544 127.487 58.7544 127.22C58.5544 126.947 58.4477 126.643 58.4344 126.31H59.6144C59.6344 126.543 59.7444 126.74 59.9444 126.9C60.151 127.053 60.4077 127.13 60.7144 127.13C61.0344 127.13 61.281 127.07 61.4544 126.95C61.6344 126.823 61.7244 126.663 61.7244 126.47C61.7244 126.263 61.6244 126.11 61.4244 126.01C61.231 125.91 60.921 125.8 60.4944 125.68C60.081 125.567 59.7444 125.457 59.4844 125.35C59.2244 125.243 58.9977 125.08 58.8044 124.86C58.6177 124.64 58.5244 124.35 58.5244 123.99C58.5244 123.697 58.611 123.43 58.7844 123.19C58.9577 122.943 59.2044 122.75 59.5244 122.61C59.851 122.47 60.2244 122.4 60.6444 122.4C61.271 122.4 61.7744 122.56 62.1544 122.88C62.541 123.193 62.7477 123.623 62.7744 124.17H61.6344C61.6144 123.923 61.5144 123.727 61.3344 123.58C61.1544 123.433 60.911 123.36 60.6044 123.36C60.3044 123.36 60.0744 123.417 59.9144 123.53C59.7544 123.643 59.6744 123.793 59.6744 123.98C59.6744 124.127 59.7277 124.25 59.8344 124.35C59.941 124.45 60.071 124.53 60.2244 124.59C60.3777 124.643 60.6044 124.713 60.9044 124.8C61.3044 124.907 61.631 125.017 61.8844 125.13C62.1444 125.237 62.3677 125.397 62.5544 125.61C62.741 125.823 62.8377 126.107 62.8444 126.46C62.8444 126.773 62.7577 127.053 62.5844 127.3C62.411 127.547 62.1644 127.74 61.8444 127.88C61.531 128.02 61.161 128.09 60.7344 128.09ZM66.2938 124.51C66.2938 123.83 66.4505 123.22 66.7638 122.68C67.0838 122.14 67.5138 121.72 68.0538 121.42C68.6005 121.113 69.1972 120.96 69.8438 120.96C70.5838 120.96 71.2405 121.143 71.8138 121.51C72.3938 121.87 72.8138 122.383 73.0738 123.05H71.7038C71.5238 122.683 71.2738 122.41 70.9538 122.23C70.6338 122.05 70.2638 121.96 69.8438 121.96C69.3838 121.96 68.9738 122.063 68.6138 122.27C68.2538 122.477 67.9705 122.773 67.7638 123.16C67.5638 123.547 67.4638 123.997 67.4638 124.51C67.4638 125.023 67.5638 125.473 67.7638 125.86C67.9705 126.247 68.2538 126.547 68.6138 126.76C68.9738 126.967 69.3838 127.07 69.8438 127.07C70.2638 127.07 70.6338 126.98 70.9538 126.8C71.2738 126.62 71.5238 126.347 71.7038 125.98H73.0738C72.8138 126.647 72.3938 127.16 71.8138 127.52C71.2405 127.88 70.5838 128.06 69.8438 128.06C69.1905 128.06 68.5938 127.91 68.0538 127.61C67.5138 127.303 67.0838 126.88 66.7638 126.34C66.4505 125.8 66.2938 125.19 66.2938 124.51ZM77.2582 122.4C77.6782 122.4 78.0515 122.49 78.3782 122.67C78.7115 122.85 78.9715 123.117 79.1582 123.47C79.3515 123.823 79.4482 124.25 79.4482 124.75V128H78.3182V124.92C78.3182 124.427 78.1949 124.05 77.9482 123.79C77.7015 123.523 77.3649 123.39 76.9382 123.39C76.5115 123.39 76.1715 123.523 75.9182 123.79C75.6715 124.05 75.5482 124.427 75.5482 124.92V128H74.4082V120.6H75.5482V123.13C75.7415 122.897 75.9849 122.717 76.2782 122.59C76.5782 122.463 76.9049 122.4 77.2582 122.4ZM85.8923 122.49V128H84.7523V127.35C84.5723 127.577 84.3357 127.757 84.0423 127.89C83.7557 128.017 83.449 128.08 83.1223 128.08C82.689 128.08 82.299 127.99 81.9523 127.81C81.6123 127.63 81.3423 127.363 81.1423 127.01C80.949 126.657 80.8523 126.23 80.8523 125.73V122.49H81.9823V125.56C81.9823 126.053 82.1057 126.433 82.3523 126.7C82.599 126.96 82.9357 127.09 83.3623 127.09C83.789 127.09 84.1257 126.96 84.3723 126.7C84.6257 126.433 84.7523 126.053 84.7523 125.56V122.49H85.8923ZM89.5765 125.25L92.1165 128H90.5765L88.5365 125.63V128H87.3965V120.6H88.5365V124.9L90.5365 122.49H92.1165L89.5765 125.25ZM100.334 122.49L98.6236 128H97.4236L96.3136 123.93L95.2036 128H94.0036L92.2836 122.49H93.4436L94.5936 126.92L95.7636 122.49H96.9536L98.0736 126.9L99.2136 122.49H100.334ZM106.176 122.49V128H105.036V127.35C104.856 127.577 104.619 127.757 104.326 127.89C104.039 128.017 103.732 128.08 103.406 128.08C102.972 128.08 102.582 127.99 102.236 127.81C101.896 127.63 101.626 127.363 101.426 127.01C101.232 126.657 101.136 126.23 101.136 125.73V122.49H102.266V125.56C102.266 126.053 102.389 126.433 102.636 126.7C102.882 126.96 103.219 127.09 103.646 127.09C104.072 127.09 104.409 126.96 104.656 126.7C104.909 126.433 105.036 126.053 105.036 125.56V122.49H106.176Z" fill="white"/>
<path d="M31.05 145.506V147.333H32.905V147.739H31.05V149.594H33.115V150H30.56V145.1H33.115V145.506H31.05ZM36.0825 150L35.0955 148.46L34.1435 150H33.6255L34.8575 148.089L33.6395 146.178H34.1925L35.1655 147.697L36.1105 146.178H36.6215L35.4035 148.068L36.6355 150H36.0825ZM37.7832 147.018C37.9046 146.761 38.0959 146.549 38.3572 146.381C38.6232 146.208 38.9382 146.122 39.3022 146.122C39.6476 146.122 39.9579 146.204 40.2332 146.367C40.5132 146.526 40.7302 146.754 40.8842 147.053C41.0429 147.347 41.1222 147.69 41.1222 148.082C41.1222 148.474 41.0429 148.819 40.8842 149.118C40.7302 149.417 40.5132 149.648 40.2332 149.811C39.9579 149.974 39.6476 150.056 39.3022 150.056C38.9429 150.056 38.6302 149.972 38.3642 149.804C38.0982 149.631 37.9046 149.417 37.7832 149.16V151.806H37.3002V146.178H37.7832V147.018ZM40.6252 148.082C40.6252 147.765 40.5622 147.492 40.4362 147.263C40.3149 147.03 40.1469 146.852 39.9322 146.731C39.7176 146.61 39.4749 146.549 39.2042 146.549C38.9429 146.549 38.7026 146.612 38.4832 146.738C38.2686 146.864 38.0982 147.044 37.9722 147.277C37.8462 147.51 37.7832 147.781 37.7832 148.089C37.7832 148.397 37.8462 148.668 37.9722 148.901C38.0982 149.134 38.2686 149.314 38.4832 149.44C38.7026 149.566 38.9429 149.629 39.2042 149.629C39.4749 149.629 39.7176 149.568 39.9322 149.447C40.1469 149.321 40.3149 149.141 40.4362 148.908C40.5622 148.67 40.6252 148.395 40.6252 148.082ZM42.2689 145.457C42.1709 145.457 42.0869 145.422 42.0169 145.352C41.9469 145.282 41.9119 145.196 41.9119 145.093C41.9119 144.99 41.9469 144.906 42.0169 144.841C42.0869 144.771 42.1709 144.736 42.2689 144.736C42.3669 144.736 42.4509 144.771 42.5209 144.841C42.5909 144.906 42.6259 144.99 42.6259 145.093C42.6259 145.196 42.5909 145.282 42.5209 145.352C42.4509 145.422 42.3669 145.457 42.2689 145.457ZM42.5139 146.178V150H42.0239V146.178H42.5139ZM44.1135 146.857C44.2208 146.619 44.3841 146.435 44.6035 146.304C44.8275 146.173 45.1005 146.108 45.4225 146.108V146.619H45.2895C44.9348 146.619 44.6501 146.715 44.4355 146.906C44.2208 147.097 44.1135 147.417 44.1135 147.865V150H43.6235V146.178H44.1135V146.857ZM49.3096 146.178L47.0416 151.799H46.5306L47.2726 149.979L45.7046 146.178H46.2436L47.5456 149.44L48.8056 146.178H49.3096ZM51.671 148.082C51.671 147.69 51.7503 147.347 51.909 147.053C52.0676 146.754 52.2846 146.526 52.56 146.367C52.84 146.204 53.155 146.122 53.505 146.122C53.841 146.122 54.1443 146.204 54.415 146.367C54.6856 146.53 54.884 146.743 55.01 147.004V144.82H55.5V150H55.01V149.146C54.8933 149.412 54.702 149.631 54.436 149.804C54.17 149.972 53.8573 150.056 53.498 150.056C53.148 150.056 52.833 149.974 52.553 149.811C52.2776 149.648 52.0606 149.417 51.902 149.118C51.748 148.819 51.671 148.474 51.671 148.082ZM55.01 148.089C55.01 147.781 54.947 147.51 54.821 147.277C54.695 147.044 54.5223 146.864 54.303 146.738C54.0883 146.612 53.8503 146.549 53.589 146.549C53.3183 146.549 53.0756 146.61 52.861 146.731C52.6463 146.852 52.476 147.03 52.35 147.263C52.2286 147.492 52.168 147.765 52.168 148.082C52.168 148.395 52.2286 148.67 52.35 148.908C52.476 149.141 52.6463 149.321 52.861 149.447C53.0756 149.568 53.3183 149.629 53.589 149.629C53.8503 149.629 54.0883 149.566 54.303 149.44C54.5223 149.314 54.695 149.134 54.821 148.901C54.947 148.668 55.01 148.397 55.01 148.089ZM56.3946 148.082C56.3946 147.69 56.4716 147.347 56.6256 147.053C56.7843 146.754 57.0013 146.526 57.2766 146.367C57.5566 146.204 57.8716 146.122 58.2216 146.122C58.5856 146.122 58.8983 146.206 59.1596 146.374C59.4256 146.542 59.6169 146.757 59.7336 147.018V146.178H60.2236V150H59.7336V149.153C59.6123 149.414 59.4186 149.631 59.1526 149.804C58.8913 149.972 58.5786 150.056 58.2146 150.056C57.8693 150.056 57.5566 149.974 57.2766 149.811C57.0013 149.648 56.7843 149.417 56.6256 149.118C56.4716 148.819 56.3946 148.474 56.3946 148.082ZM59.7336 148.089C59.7336 147.781 59.6706 147.51 59.5446 147.277C59.4186 147.044 59.2459 146.864 59.0266 146.738C58.8119 146.612 58.5739 146.549 58.3126 146.549C58.0419 146.549 57.7993 146.61 57.5846 146.731C57.3699 146.852 57.1996 147.03 57.0736 147.263C56.9523 147.492 56.8916 147.765 56.8916 148.082C56.8916 148.395 56.9523 148.67 57.0736 148.908C57.1996 149.141 57.3699 149.321 57.5846 149.447C57.7993 149.568 58.0419 149.629 58.3126 149.629C58.5739 149.629 58.8119 149.566 59.0266 149.44C59.2459 149.314 59.4186 149.134 59.5446 148.901C59.6706 148.668 59.7336 148.397 59.7336 148.089ZM61.9792 146.591V148.964C61.9792 149.197 62.0236 149.358 62.1122 149.447C62.2009 149.536 62.3572 149.58 62.5812 149.58H63.0292V150H62.5042C62.1589 150 61.9022 149.921 61.7342 149.762C61.5662 149.599 61.4822 149.333 61.4822 148.964V146.591H60.9502V146.178H61.4822V145.219H61.9792V146.178H63.0292V146.591H61.9792ZM67.2953 147.893C67.2953 148.061 67.2907 148.189 67.2813 148.278H64.1103C64.1243 148.567 64.1943 148.815 64.3203 149.02C64.4463 149.225 64.612 149.382 64.8173 149.489C65.0227 149.592 65.2467 149.643 65.4893 149.643C65.8067 149.643 66.0727 149.566 66.2873 149.412C66.5067 149.258 66.6513 149.05 66.7213 148.789H67.2393C67.146 149.162 66.9453 149.468 66.6373 149.706C66.334 149.939 65.9513 150.056 65.4893 150.056C65.13 150.056 64.808 149.977 64.5233 149.818C64.2387 149.655 64.0147 149.426 63.8513 149.132C63.6927 148.833 63.6133 148.486 63.6133 148.089C63.6133 147.692 63.6927 147.345 63.8513 147.046C64.01 146.747 64.2317 146.519 64.5163 146.36C64.801 146.201 65.1253 146.122 65.4893 146.122C65.8533 146.122 66.1707 146.201 66.4413 146.36C66.7167 146.519 66.9267 146.733 67.0713 147.004C67.2207 147.27 67.2953 147.566 67.2953 147.893ZM66.7983 147.879C66.803 147.594 66.7447 147.352 66.6233 147.151C66.5067 146.95 66.3457 146.799 66.1403 146.696C65.935 146.593 65.711 146.542 65.4683 146.542C65.1043 146.542 64.794 146.659 64.5373 146.892C64.2807 147.125 64.1383 147.454 64.1103 147.879H66.7983Z" fill="white"/>
<path d="M31.05 145.506V147.333H32.905V147.739H31.05V149.594H33.115V150H30.56V145.1H33.115V145.506H31.05ZM36.0825 150L35.0955 148.46L34.1435 150H33.6255L34.8575 148.089L33.6395 146.178H34.1925L35.1655 147.697L36.1105 146.178H36.6215L35.4035 148.068L36.6355 150H36.0825ZM37.7832 147.018C37.9046 146.761 38.0959 146.549 38.3572 146.381C38.6232 146.208 38.9382 146.122 39.3022 146.122C39.6476 146.122 39.9579 146.204 40.2332 146.367C40.5132 146.526 40.7302 146.754 40.8842 147.053C41.0429 147.347 41.1222 147.69 41.1222 148.082C41.1222 148.474 41.0429 148.819 40.8842 149.118C40.7302 149.417 40.5132 149.648 40.2332 149.811C39.9579 149.974 39.6476 150.056 39.3022 150.056C38.9429 150.056 38.6302 149.972 38.3642 149.804C38.0982 149.631 37.9046 149.417 37.7832 149.16V151.806H37.3002V146.178H37.7832V147.018ZM40.6252 148.082C40.6252 147.765 40.5622 147.492 40.4362 147.263C40.3149 147.03 40.1469 146.852 39.9322 146.731C39.7176 146.61 39.4749 146.549 39.2042 146.549C38.9429 146.549 38.7026 146.612 38.4832 146.738C38.2686 146.864 38.0982 147.044 37.9722 147.277C37.8462 147.51 37.7832 147.781 37.7832 148.089C37.7832 148.397 37.8462 148.668 37.9722 148.901C38.0982 149.134 38.2686 149.314 38.4832 149.44C38.7026 149.566 38.9429 149.629 39.2042 149.629C39.4749 149.629 39.7176 149.568 39.9322 149.447C40.1469 149.321 40.3149 149.141 40.4362 148.908C40.5622 148.67 40.6252 148.395 40.6252 148.082ZM42.2689 145.457C42.1709 145.457 42.0869 145.422 42.0169 145.352C41.9469 145.282 41.9119 145.196 41.9119 145.093C41.9119 144.99 41.9469 144.906 42.0169 144.841C42.0869 144.771 42.1709 144.736 42.2689 144.736C42.3669 144.736 42.4509 144.771 42.5209 144.841C42.5909 144.906 42.6259 144.99 42.6259 145.093C42.6259 145.196 42.5909 145.282 42.5209 145.352C42.4509 145.422 42.3669 145.457 42.2689 145.457ZM42.5139 146.178V150H42.0239V146.178H42.5139ZM44.1135 146.857C44.2208 146.619 44.3841 146.435 44.6035 146.304C44.8275 146.173 45.1005 146.108 45.4225 146.108V146.619H45.2895C44.9348 146.619 44.6501 146.715 44.4355 146.906C44.2208 147.097 44.1135 147.417 44.1135 147.865V150H43.6235V146.178H44.1135V146.857ZM49.3096 146.178L47.0416 151.799H46.5306L47.2726 149.979L45.7046 146.178H46.2436L47.5456 149.44L48.8056 146.178H49.3096ZM51.671 148.082C51.671 147.69 51.7503 147.347 51.909 147.053C52.0676 146.754 52.2846 146.526 52.56 146.367C52.84 146.204 53.155 146.122 53.505 146.122C53.841 146.122 54.1443 146.204 54.415 146.367C54.6856 146.53 54.884 146.743 55.01 147.004V144.82H55.5V150H55.01V149.146C54.8933 149.412 54.702 149.631 54.436 149.804C54.17 149.972 53.8573 150.056 53.498 150.056C53.148 150.056 52.833 149.974 52.553 149.811C52.2776 149.648 52.0606 149.417 51.902 149.118C51.748 148.819 51.671 148.474 51.671 148.082ZM55.01 148.089C55.01 147.781 54.947 147.51 54.821 147.277C54.695 147.044 54.5223 146.864 54.303 146.738C54.0883 146.612 53.8503 146.549 53.589 146.549C53.3183 146.549 53.0756 146.61 52.861 146.731C52.6463 146.852 52.476 147.03 52.35 147.263C52.2286 147.492 52.168 147.765 52.168 148.082C52.168 148.395 52.2286 148.67 52.35 148.908C52.476 149.141 52.6463 149.321 52.861 149.447C53.0756 149.568 53.3183 149.629 53.589 149.629C53.8503 149.629 54.0883 149.566 54.303 149.44C54.5223 149.314 54.695 149.134 54.821 148.901C54.947 148.668 55.01 148.397 55.01 148.089ZM56.3946 148.082C56.3946 147.69 56.4716 147.347 56.6256 147.053C56.7843 146.754 57.0013 146.526 57.2766 146.367C57.5566 146.204 57.8716 146.122 58.2216 146.122C58.5856 146.122 58.8983 146.206 59.1596 146.374C59.4256 146.542 59.6169 146.757 59.7336 147.018V146.178H60.2236V150H59.7336V149.153C59.6123 149.414 59.4186 149.631 59.1526 149.804C58.8913 149.972 58.5786 150.056 58.2146 150.056C57.8693 150.056 57.5566 149.974 57.2766 149.811C57.0013 149.648 56.7843 149.417 56.6256 149.118C56.4716 148.819 56.3946 148.474 56.3946 148.082ZM59.7336 148.089C59.7336 147.781 59.6706 147.51 59.5446 147.277C59.4186 147.044 59.2459 146.864 59.0266 146.738C58.8119 146.612 58.5739 146.549 58.3126 146.549C58.0419 146.549 57.7993 146.61 57.5846 146.731C57.3699 146.852 57.1996 147.03 57.0736 147.263C56.9523 147.492 56.8916 147.765 56.8916 148.082C56.8916 148.395 56.9523 148.67 57.0736 148.908C57.1996 149.141 57.3699 149.321 57.5846 149.447C57.7993 149.568 58.0419 149.629 58.3126 149.629C58.5739 149.629 58.8119 149.566 59.0266 149.44C59.2459 149.314 59.4186 149.134 59.5446 148.901C59.6706 148.668 59.7336 148.397 59.7336 148.089ZM61.9792 146.591V148.964C61.9792 149.197 62.0236 149.358 62.1122 149.447C62.2009 149.536 62.3572 149.58 62.5812 149.58H63.0292V150H62.5042C62.1589 150 61.9022 149.921 61.7342 149.762C61.5662 149.599 61.4822 149.333 61.4822 148.964V146.591H60.9502V146.178H61.4822V145.219H61.9792V146.178H63.0292V146.591H61.9792ZM67.2953 147.893C67.2953 148.061 67.2907 148.189 67.2813 148.278H64.1103C64.1243 148.567 64.1943 148.815 64.3203 149.02C64.4463 149.225 64.612 149.382 64.8173 149.489C65.0227 149.592 65.2467 149.643 65.4893 149.643C65.8067 149.643 66.0727 149.566 66.2873 149.412C66.5067 149.258 66.6513 149.05 66.7213 148.789H67.2393C67.146 149.162 66.9453 149.468 66.6373 149.706C66.334 149.939 65.9513 150.056 65.4893 150.056C65.13 150.056 64.808 149.977 64.5233 149.818C64.2387 149.655 64.0147 149.426 63.8513 149.132C63.6927 148.833 63.6133 148.486 63.6133 148.089C63.6133 147.692 63.6927 147.345 63.8513 147.046C64.01 146.747 64.2317 146.519 64.5163 146.36C64.801 146.201 65.1253 146.122 65.4893 146.122C65.8533 146.122 66.1707 146.201 66.4413 146.36C66.7167 146.519 66.9267 146.733 67.0713 147.004C67.2207 147.27 67.2953 147.566 67.2953 147.893ZM66.7983 147.879C66.803 147.594 66.7447 147.352 66.6233 147.151C66.5067 146.95 66.3457 146.799 66.1403 146.696C65.935 146.593 65.711 146.542 65.4683 146.542C65.1043 146.542 64.794 146.659 64.5373 146.892C64.2807 147.125 64.1383 147.454 64.1103 147.879H66.7983Z" fill="white"/>
<path d="M29.45 157.75V156.71H31.53V164H30.38V157.75H29.45ZM33.7261 162.45C34.3661 161.897 34.8694 161.443 35.2361 161.09C35.6094 160.73 35.9194 160.357 36.1661 159.97C36.4128 159.583 36.5361 159.197 36.5361 158.81C36.5361 158.41 36.4394 158.097 36.2461 157.87C36.0594 157.643 35.7628 157.53 35.3561 157.53C34.9628 157.53 34.6561 157.657 34.4361 157.91C34.2228 158.157 34.1094 158.49 34.0961 158.91H32.9961C33.0161 158.15 33.2428 157.57 33.6761 157.17C34.1161 156.763 34.6728 156.56 35.3461 156.56C36.0728 156.56 36.6394 156.76 37.0461 157.16C37.4594 157.56 37.6661 158.093 37.6661 158.76C37.6661 159.24 37.5428 159.703 37.2961 160.15C37.0561 160.59 36.7661 160.987 36.4261 161.34C36.0928 161.687 35.6661 162.09 35.1461 162.55L34.6961 162.95H37.8661V163.9H33.0061V163.07L33.7261 162.45ZM42.7176 154.56L39.9976 165.75H38.8776L41.5876 154.56H42.7176ZM44.6343 162.45C45.2743 161.897 45.7776 161.443 46.1443 161.09C46.5176 160.73 46.8276 160.357 47.0743 159.97C47.321 159.583 47.4443 159.197 47.4443 158.81C47.4443 158.41 47.3476 158.097 47.1543 157.87C46.9676 157.643 46.671 157.53 46.2643 157.53C45.871 157.53 45.5643 157.657 45.3443 157.91C45.131 158.157 45.0176 158.49 45.0043 158.91H43.9043C43.9243 158.15 44.151 157.57 44.5843 157.17C45.0243 156.763 45.581 156.56 46.2543 156.56C46.981 156.56 47.5476 156.76 47.9543 157.16C48.3676 157.56 48.5743 158.093 48.5743 158.76C48.5743 159.24 48.451 159.703 48.2043 160.15C47.9643 160.59 47.6743 160.987 47.3343 161.34C47.001 161.687 46.5743 162.09 46.0543 162.55L45.6043 162.95H48.7743V163.9H43.9143V163.07L44.6343 162.45ZM49.7758 160.26C49.7758 159.107 49.9691 158.207 50.3558 157.56C50.7491 156.907 51.4224 156.58 52.3758 156.58C53.3291 156.58 53.9991 156.907 54.3858 157.56C54.7791 158.207 54.9758 159.107 54.9758 160.26C54.9758 161.427 54.7791 162.34 54.3858 163C53.9991 163.653 53.3291 163.98 52.3758 163.98C51.4224 163.98 50.7491 163.653 50.3558 163C49.9691 162.34 49.7758 161.427 49.7758 160.26ZM53.8558 160.26C53.8558 159.72 53.8191 159.263 53.7458 158.89C53.6791 158.517 53.5391 158.213 53.3258 157.98C53.1124 157.74 52.7958 157.62 52.3758 157.62C51.9558 157.62 51.6391 157.74 51.4258 157.98C51.2124 158.213 51.0691 158.517 50.9958 158.89C50.9291 159.263 50.8958 159.72 50.8958 160.26C50.8958 160.82 50.9291 161.29 50.9958 161.67C51.0624 162.05 51.2024 162.357 51.4158 162.59C51.6358 162.823 51.9558 162.94 52.3758 162.94C52.7958 162.94 53.1124 162.823 53.3258 162.59C53.5458 162.357 53.6891 162.05 53.7558 161.67C53.8224 161.29 53.8558 160.82 53.8558 160.26ZM56.812 162.45C57.452 161.897 57.9554 161.443 58.322 161.09C58.6954 160.73 59.0054 160.357 59.252 159.97C59.4987 159.583 59.622 159.197 59.622 158.81C59.622 158.41 59.5254 158.097 59.332 157.87C59.1454 157.643 58.8487 157.53 58.442 157.53C58.0487 157.53 57.742 157.657 57.522 157.91C57.3087 158.157 57.1954 158.49 57.182 158.91H56.082C56.102 158.15 56.3287 157.57 56.762 157.17C57.202 156.763 57.7587 156.56 58.432 156.56C59.1587 156.56 59.7254 156.76 60.132 157.16C60.5454 157.56 60.752 158.093 60.752 158.76C60.752 159.24 60.6287 159.703 60.382 160.15C60.142 160.59 59.852 160.987 59.512 161.34C59.1787 161.687 58.752 162.09 58.232 162.55L57.782 162.95H60.952V163.9H56.092V163.07L56.812 162.45ZM66.6535 157.69H63.3035V159.68C63.4435 159.493 63.6502 159.337 63.9235 159.21C64.2035 159.083 64.5002 159.02 64.8135 159.02C65.3735 159.02 65.8268 159.14 66.1735 159.38C66.5268 159.62 66.7768 159.923 66.9235 160.29C67.0768 160.657 67.1535 161.043 67.1535 161.45C67.1535 161.943 67.0568 162.383 66.8635 162.77C66.6768 163.15 66.3935 163.45 66.0135 163.67C65.6402 163.89 65.1802 164 64.6335 164C63.9068 164 63.3235 163.82 62.8835 163.46C62.4435 163.1 62.1802 162.623 62.0935 162.03H63.2035C63.2768 162.343 63.4402 162.593 63.6935 162.78C63.9468 162.96 64.2635 163.05 64.6435 163.05C65.1168 163.05 65.4702 162.907 65.7035 162.62C65.9435 162.333 66.0635 161.953 66.0635 161.48C66.0635 161 65.9435 160.633 65.7035 160.38C65.4635 160.12 65.1102 159.99 64.6435 159.99C64.3168 159.99 64.0402 160.073 63.8135 160.24C63.5935 160.4 63.4335 160.62 63.3335 160.9H62.2535V156.69H66.6535V157.69Z" fill="white"/>
<path d="M29.45 157.75V156.71H31.53V164H30.38V157.75H29.45ZM33.7261 162.45C34.3661 161.897 34.8694 161.443 35.2361 161.09C35.6094 160.73 35.9194 160.357 36.1661 159.97C36.4128 159.583 36.5361 159.197 36.5361 158.81C36.5361 158.41 36.4394 158.097 36.2461 157.87C36.0594 157.643 35.7628 157.53 35.3561 157.53C34.9628 157.53 34.6561 157.657 34.4361 157.91C34.2228 158.157 34.1094 158.49 34.0961 158.91H32.9961C33.0161 158.15 33.2428 157.57 33.6761 157.17C34.1161 156.763 34.6728 156.56 35.3461 156.56C36.0728 156.56 36.6394 156.76 37.0461 157.16C37.4594 157.56 37.6661 158.093 37.6661 158.76C37.6661 159.24 37.5428 159.703 37.2961 160.15C37.0561 160.59 36.7661 160.987 36.4261 161.34C36.0928 161.687 35.6661 162.09 35.1461 162.55L34.6961 162.95H37.8661V163.9H33.0061V163.07L33.7261 162.45ZM42.7176 154.56L39.9976 165.75H38.8776L41.5876 154.56H42.7176ZM44.6343 162.45C45.2743 161.897 45.7776 161.443 46.1443 161.09C46.5176 160.73 46.8276 160.357 47.0743 159.97C47.321 159.583 47.4443 159.197 47.4443 158.81C47.4443 158.41 47.3476 158.097 47.1543 157.87C46.9676 157.643 46.671 157.53 46.2643 157.53C45.871 157.53 45.5643 157.657 45.3443 157.91C45.131 158.157 45.0176 158.49 45.0043 158.91H43.9043C43.9243 158.15 44.151 157.57 44.5843 157.17C45.0243 156.763 45.581 156.56 46.2543 156.56C46.981 156.56 47.5476 156.76 47.9543 157.16C48.3676 157.56 48.5743 158.093 48.5743 158.76C48.5743 159.24 48.451 159.703 48.2043 160.15C47.9643 160.59 47.6743 160.987 47.3343 161.34C47.001 161.687 46.5743 162.09 46.0543 162.55L45.6043 162.95H48.7743V163.9H43.9143V163.07L44.6343 162.45ZM49.7758 160.26C49.7758 159.107 49.9691 158.207 50.3558 157.56C50.7491 156.907 51.4224 156.58 52.3758 156.58C53.3291 156.58 53.9991 156.907 54.3858 157.56C54.7791 158.207 54.9758 159.107 54.9758 160.26C54.9758 161.427 54.7791 162.34 54.3858 163C53.9991 163.653 53.3291 163.98 52.3758 163.98C51.4224 163.98 50.7491 163.653 50.3558 163C49.9691 162.34 49.7758 161.427 49.7758 160.26ZM53.8558 160.26C53.8558 159.72 53.8191 159.263 53.7458 158.89C53.6791 158.517 53.5391 158.213 53.3258 157.98C53.1124 157.74 52.7958 157.62 52.3758 157.62C51.9558 157.62 51.6391 157.74 51.4258 157.98C51.2124 158.213 51.0691 158.517 50.9958 158.89C50.9291 159.263 50.8958 159.72 50.8958 160.26C50.8958 160.82 50.9291 161.29 50.9958 161.67C51.0624 162.05 51.2024 162.357 51.4158 162.59C51.6358 162.823 51.9558 162.94 52.3758 162.94C52.7958 162.94 53.1124 162.823 53.3258 162.59C53.5458 162.357 53.6891 162.05 53.7558 161.67C53.8224 161.29 53.8558 160.82 53.8558 160.26ZM56.812 162.45C57.452 161.897 57.9554 161.443 58.322 161.09C58.6954 160.73 59.0054 160.357 59.252 159.97C59.4987 159.583 59.622 159.197 59.622 158.81C59.622 158.41 59.5254 158.097 59.332 157.87C59.1454 157.643 58.8487 157.53 58.442 157.53C58.0487 157.53 57.742 157.657 57.522 157.91C57.3087 158.157 57.1954 158.49 57.182 158.91H56.082C56.102 158.15 56.3287 157.57 56.762 157.17C57.202 156.763 57.7587 156.56 58.432 156.56C59.1587 156.56 59.7254 156.76 60.132 157.16C60.5454 157.56 60.752 158.093 60.752 158.76C60.752 159.24 60.6287 159.703 60.382 160.15C60.142 160.59 59.852 160.987 59.512 161.34C59.1787 161.687 58.752 162.09 58.232 162.55L57.782 162.95H60.952V163.9H56.092V163.07L56.812 162.45ZM66.6535 157.69H63.3035V159.68C63.4435 159.493 63.6502 159.337 63.9235 159.21C64.2035 159.083 64.5002 159.02 64.8135 159.02C65.3735 159.02 65.8268 159.14 66.1735 159.38C66.5268 159.62 66.7768 159.923 66.9235 160.29C67.0768 160.657 67.1535 161.043 67.1535 161.45C67.1535 161.943 67.0568 162.383 66.8635 162.77C66.6768 163.15 66.3935 163.45 66.0135 163.67C65.6402 163.89 65.1802 164 64.6335 164C63.9068 164 63.3235 163.82 62.8835 163.46C62.4435 163.1 62.1802 162.623 62.0935 162.03H63.2035C63.2768 162.343 63.4402 162.593 63.6935 162.78C63.9468 162.96 64.2635 163.05 64.6435 163.05C65.1168 163.05 65.4702 162.907 65.7035 162.62C65.9435 162.333 66.0635 161.953 66.0635 161.48C66.0635 161 65.9435 160.633 65.7035 160.38C65.4635 160.12 65.1102 159.99 64.6435 159.99C64.3168 159.99 64.0402 160.073 63.8135 160.24C63.5935 160.4 63.4335 160.62 63.3335 160.9H62.2535V156.69H66.6535V157.69Z" fill="white"/>
<g clip-path="url(#clip0)">
<path d="M277.379 170.455V166.966C277.379 165.628 276.561 164.756 275.16 164.756C274.459 164.756 273.7 164.988 273.175 165.744C272.766 165.105 272.182 164.756 271.306 164.756C270.722 164.756 270.139 164.93 269.671 165.57V164.872H268.445V170.455H269.671V167.372C269.671 166.384 270.197 165.919 271.014 165.919C271.832 165.919 272.241 166.442 272.241 167.372V170.455H273.467V167.372C273.467 166.384 274.05 165.919 274.81 165.919C275.627 165.919 276.036 166.442 276.036 167.372V170.455H277.379ZM295.538 164.872H293.553V163.186H292.327V164.872H291.217V165.977H292.327V168.536C292.327 169.815 292.852 170.571 294.254 170.571C294.779 170.571 295.363 170.397 295.772 170.164L295.421 169.117C295.071 169.35 294.663 169.408 294.37 169.408C293.787 169.408 293.553 169.059 293.553 168.477V165.977H295.538V164.872ZM305.932 164.755C305.231 164.755 304.764 165.105 304.472 165.57V164.872H303.246V170.455H304.472V167.314C304.472 166.384 304.881 165.861 305.64 165.861C305.873 165.861 306.165 165.919 306.399 165.977L306.749 164.814C306.516 164.756 306.165 164.755 305.932 164.755ZM290.225 165.337C289.641 164.93 288.823 164.756 287.947 164.756C286.546 164.756 285.612 165.453 285.612 166.558C285.612 167.489 286.313 168.012 287.539 168.187L288.123 168.245C288.765 168.361 289.115 168.536 289.115 168.827C289.115 169.233 288.648 169.524 287.831 169.524C287.013 169.524 286.371 169.233 285.962 168.943L285.378 169.873C286.021 170.338 286.897 170.571 287.772 170.571C289.407 170.571 290.342 169.815 290.342 168.768C290.342 167.78 289.582 167.256 288.415 167.082L287.831 167.024C287.305 166.965 286.897 166.849 286.897 166.5C286.897 166.093 287.305 165.861 287.947 165.861C288.648 165.861 289.349 166.151 289.699 166.326L290.225 165.337ZM322.807 164.756C322.106 164.756 321.639 165.105 321.347 165.57V164.872H320.121V170.455H321.347V167.314C321.347 166.384 321.756 165.861 322.514 165.861C322.748 165.861 323.04 165.919 323.274 165.977L323.624 164.814C323.391 164.756 323.04 164.756 322.807 164.756ZM307.158 167.663C307.158 169.35 308.326 170.571 310.136 170.571C310.953 170.571 311.537 170.397 312.121 169.931L311.537 168.943C311.07 169.292 310.603 169.466 310.078 169.466C309.085 169.466 308.384 168.768 308.384 167.663C308.384 166.617 309.085 165.919 310.078 165.861C310.603 165.861 311.07 166.035 311.537 166.384L312.121 165.395C311.537 164.93 310.953 164.756 310.136 164.756C308.326 164.756 307.158 165.977 307.158 167.663ZM318.486 167.663V164.872H317.26V165.57C316.851 165.047 316.267 164.756 315.508 164.756C313.931 164.756 312.705 165.977 312.705 167.663C312.705 169.35 313.931 170.571 315.508 170.571C316.325 170.571 316.909 170.28 317.26 169.757V170.455H318.486V167.663ZM313.99 167.663C313.99 166.675 314.632 165.861 315.683 165.861C316.676 165.861 317.376 166.617 317.376 167.663C317.376 168.652 316.676 169.466 315.683 169.466C314.632 169.408 313.99 168.652 313.99 167.663ZM299.334 164.756C297.699 164.756 296.531 165.919 296.531 167.663C296.531 169.408 297.699 170.571 299.392 170.571C300.209 170.571 301.027 170.338 301.669 169.815L301.085 168.943C300.618 169.292 300.034 169.524 299.451 169.524C298.691 169.524 297.932 169.175 297.757 168.187H301.903V167.722C301.961 165.919 300.911 164.756 299.334 164.756ZM299.334 165.802C300.093 165.802 300.618 166.268 300.735 167.14H297.816C297.932 166.384 298.458 165.802 299.334 165.802ZM329.755 167.663V162.662H328.529V165.57C328.12 165.047 327.536 164.756 326.777 164.756C325.201 164.756 323.974 165.977 323.974 167.663C323.974 169.35 325.201 170.571 326.777 170.571C327.595 170.571 328.179 170.28 328.529 169.757V170.455H329.755V167.663ZM325.259 167.663C325.259 166.675 325.901 165.861 326.952 165.861C327.945 165.861 328.646 166.617 328.646 167.663C328.646 168.652 327.945 169.466 326.952 169.466C325.901 169.408 325.259 168.652 325.259 167.663ZM284.269 167.663V164.872H283.043V165.57C282.634 165.047 282.05 164.756 281.291 164.756C279.714 164.756 278.488 165.977 278.488 167.663C278.488 169.35 279.714 170.571 281.291 170.571C282.109 170.571 282.692 170.28 283.043 169.757V170.455H284.269V167.663ZM279.714 167.663C279.714 166.675 280.357 165.861 281.408 165.861C282.4 165.861 283.101 166.617 283.101 167.663C283.101 168.652 282.4 169.466 281.408 169.466C280.357 169.408 279.714 168.652 279.714 167.663Z" fill="#FFFBFB"/>
<path d="M289.816 122.478H308.209V155.393H289.816V122.478Z" fill="#FF5F00"/>
<path d="M290.984 138.935C290.984 132.248 294.137 126.316 298.983 122.478C295.422 119.686 290.926 118 286.021 118C274.401 118 265 127.363 265 138.935C265 150.508 274.401 159.871 286.021 159.871C290.925 159.871 295.421 158.184 298.983 155.393C294.137 151.613 290.984 145.623 290.984 138.935Z" fill="#EB001B"/>
<path d="M333.025 138.935C333.025 150.508 323.624 159.871 312.004 159.871C307.1 159.871 302.604 158.184 299.042 155.393C303.947 151.555 307.041 145.623 307.041 138.935C307.041 132.248 303.888 126.316 299.042 122.478C302.603 119.686 307.1 118 312.004 118C323.624 118 333.025 127.421 333.025 138.935H333.025Z" fill="#F79E1B"/>
</g>
<g clip-path="url(#clip1)">
<path d="M277.379 170.455V166.966C277.379 165.628 276.561 164.756 275.16 164.756C274.459 164.756 273.7 164.988 273.175 165.744C272.766 165.105 272.182 164.756 271.306 164.756C270.722 164.756 270.139 164.93 269.671 165.57V164.872H268.445V170.455H269.671V167.372C269.671 166.384 270.197 165.919 271.014 165.919C271.832 165.919 272.241 166.442 272.241 167.372V170.455H273.467V167.372C273.467 166.384 274.05 165.919 274.81 165.919C275.627 165.919 276.036 166.442 276.036 167.372V170.455H277.379ZM295.538 164.872H293.553V163.186H292.327V164.872H291.217V165.977H292.327V168.536C292.327 169.815 292.852 170.571 294.254 170.571C294.779 170.571 295.363 170.397 295.772 170.164L295.421 169.117C295.071 169.35 294.663 169.408 294.37 169.408C293.787 169.408 293.553 169.059 293.553 168.477V165.977H295.538V164.872ZM305.932 164.755C305.231 164.755 304.764 165.105 304.472 165.57V164.872H303.246V170.455H304.472V167.314C304.472 166.384 304.881 165.861 305.64 165.861C305.873 165.861 306.165 165.919 306.399 165.977L306.749 164.814C306.516 164.756 306.165 164.755 305.932 164.755ZM290.225 165.337C289.641 164.93 288.823 164.756 287.947 164.756C286.546 164.756 285.612 165.453 285.612 166.558C285.612 167.489 286.313 168.012 287.539 168.187L288.123 168.245C288.765 168.361 289.115 168.536 289.115 168.827C289.115 169.233 288.648 169.524 287.831 169.524C287.013 169.524 286.371 169.233 285.962 168.943L285.378 169.873C286.021 170.338 286.897 170.571 287.772 170.571C289.407 170.571 290.342 169.815 290.342 168.768C290.342 167.78 289.582 167.256 288.415 167.082L287.831 167.024C287.305 166.965 286.897 166.849 286.897 166.5C286.897 166.093 287.305 165.861 287.947 165.861C288.648 165.861 289.349 166.151 289.699 166.326L290.225 165.337ZM322.807 164.756C322.106 164.756 321.639 165.105 321.347 165.57V164.872H320.121V170.455H321.347V167.314C321.347 166.384 321.756 165.861 322.514 165.861C322.748 165.861 323.04 165.919 323.274 165.977L323.624 164.814C323.391 164.756 323.04 164.756 322.807 164.756ZM307.158 167.663C307.158 169.35 308.326 170.571 310.136 170.571C310.953 170.571 311.537 170.397 312.121 169.931L311.537 168.943C311.07 169.292 310.603 169.466 310.078 169.466C309.085 169.466 308.384 168.768 308.384 167.663C308.384 166.617 309.085 165.919 310.078 165.861C310.603 165.861 311.07 166.035 311.537 166.384L312.121 165.395C311.537 164.93 310.953 164.756 310.136 164.756C308.326 164.756 307.158 165.977 307.158 167.663ZM318.486 167.663V164.872H317.26V165.57C316.851 165.047 316.267 164.756 315.508 164.756C313.931 164.756 312.705 165.977 312.705 167.663C312.705 169.35 313.931 170.571 315.508 170.571C316.325 170.571 316.909 170.28 317.26 169.757V170.455H318.486V167.663ZM313.99 167.663C313.99 166.675 314.632 165.861 315.683 165.861C316.676 165.861 317.376 166.617 317.376 167.663C317.376 168.652 316.676 169.466 315.683 169.466C314.632 169.408 313.99 168.652 313.99 167.663ZM299.334 164.756C297.699 164.756 296.531 165.919 296.531 167.663C296.531 169.408 297.699 170.571 299.392 170.571C300.209 170.571 301.027 170.338 301.669 169.815L301.085 168.943C300.618 169.292 300.034 169.524 299.451 169.524C298.691 169.524 297.932 169.175 297.757 168.187H301.903V167.722C301.961 165.919 300.911 164.756 299.334 164.756ZM299.334 165.802C300.093 165.802 300.618 166.268 300.735 167.14H297.816C297.932 166.384 298.458 165.802 299.334 165.802ZM329.755 167.663V162.662H328.529V165.57C328.12 165.047 327.536 164.756 326.777 164.756C325.201 164.756 323.974 165.977 323.974 167.663C323.974 169.35 325.201 170.571 326.777 170.571C327.595 170.571 328.179 170.28 328.529 169.757V170.455H329.755V167.663ZM325.259 167.663C325.259 166.675 325.901 165.861 326.952 165.861C327.945 165.861 328.646 166.617 328.646 167.663C328.646 168.652 327.945 169.466 326.952 169.466C325.901 169.408 325.259 168.652 325.259 167.663ZM284.269 167.663V164.872H283.043V165.57C282.634 165.047 282.05 164.756 281.291 164.756C279.714 164.756 278.488 165.977 278.488 167.663C278.488 169.35 279.714 170.571 281.291 170.571C282.109 170.571 282.692 170.28 283.043 169.757V170.455H284.269V167.663ZM279.714 167.663C279.714 166.675 280.357 165.861 281.408 165.861C282.4 165.861 283.101 166.617 283.101 167.663C283.101 168.652 282.4 169.466 281.408 169.466C280.357 169.408 279.714 168.652 279.714 167.663Z" fill="#FFFBFB"/>
<path d="M289.816 122.478H308.209V155.393H289.816V122.478Z" fill="#FF5F00"/>
<path d="M290.984 138.935C290.984 132.248 294.137 126.316 298.983 122.478C295.422 119.686 290.926 118 286.021 118C274.401 118 265 127.363 265 138.935C265 150.508 274.401 159.871 286.021 159.871C290.925 159.871 295.421 158.184 298.983 155.393C294.137 151.613 290.984 145.623 290.984 138.935Z" fill="#EB001B"/>
<path d="M333.025 138.935C333.025 150.508 323.624 159.871 312.004 159.871C307.1 159.871 302.604 158.184 299.042 155.393C303.947 151.555 307.041 145.623 307.041 138.935C307.041 132.248 303.888 126.316 299.042 122.478C302.603 119.686 307.1 118 312.004 118C323.624 118 333.025 127.421 333.025 138.935H333.025Z" fill="#F79E1B"/>
</g>
<defs>
<filter id="filter0_d" x="0" y="0" width="358" height="210" filterUnits="userSpaceOnUse" color-interpolation-filters="sRGB">
<feFlood flood-opacity="0" result="BackgroundImageFix"/>
<feColorMatrix in="SourceAlpha" type="matrix" values="0 0 0 0 0 0 0 0 0 0 0 0 0 0 0 0 0 0 127 0" result="hardAlpha"/>
<feOffset dy="10"/>
<feGaussianBlur stdDeviation="5"/>
<feColorMatrix type="matrix" values="0 0 0 0 0.0862745 0 0 0 0 0.0196078 0 0 0 0 0.419608 0 0 0 0.1 0"/>
<feBlend mode="normal" in2="BackgroundImageFix" result="effect1_dropShadow"/>
<feBlend mode="normal" in="SourceGraphic" in2="effect1_dropShadow" result="shape"/>
</filter>
<filter id="filter1_d" x="279.738" y="15.2727" width="55.1871" height="44.5454" filterUnits="userSpaceOnUse" color-interpolation-filters="sRGB">
<feFlood flood-opacity="0" result="BackgroundImageFix"/>
<feColorMatrix in="SourceAlpha" type="matrix" values="0 0 0 0 0 0 0 0 0 0 0 0 0 0 0 0 0 0 127 0" result="hardAlpha"/>
<feOffset dy="3"/>
<feGaussianBlur stdDeviation="2.5"/>
<feColorMatrix type="matrix" values="0 0 0 0 0.0862745 0 0 0 0 0.0196078 0 0 0 0 0.419608 0 0 0 0.05 0"/>
<feBlend mode="normal" in2="BackgroundImageFix" result="effect1_dropShadow"/>
<feBlend mode="normal" in="SourceGraphic" in2="effect1_dropShadow" result="shape"/>
</filter>
<linearGradient id="paint0_linear" x1="179" y1="0" x2="179" y2="190" gradientUnits="userSpaceOnUse">
<stop stop-color="#001751"/>
<stop offset="1" stop-color="#224396"/>
</linearGradient>
<clipPath id="clip0">
<rect width="68.0925" height="52.7168" fill="white" transform="translate(265 118)"/>
</clipPath>
<clipPath id="clip1">
<rect width="68.0925" height="52.7168" fill="white" transform="translate(265 118)"/>
</clipPath>
</defs>
</svg>
