<svg width="96" height="96" viewBox="0 0 96 96" fill="none" xmlns="http://www.w3.org/2000/svg">
<path d="M78.3702 73.2934V73.429H78.4916C78.5184 73.429 78.5414 73.4224 78.5581 73.4119C78.5734 73.4014 78.5823 73.3829 78.5823 73.3606C78.5823 73.3382 78.5734 73.3211 78.5581 73.3105C78.5414 73.2987 78.5184 73.2934 78.4916 73.2934H78.3702ZM78.4929 73.1987C78.5555 73.1987 78.604 73.2131 78.6385 73.2421C78.673 73.2711 78.6896 73.3105 78.6896 73.3606C78.6896 73.4027 78.6769 73.4369 78.6488 73.4645C78.6219 73.4909 78.5836 73.508 78.5325 73.5146L78.6935 73.7054H78.5683L78.4188 73.5159H78.3702V73.7054H78.2655V73.1987H78.4929ZM78.4609 73.8805C78.5184 73.8805 78.5721 73.8686 78.6207 73.8462C78.6705 73.8239 78.7139 73.7936 78.751 73.7554C78.788 73.7173 78.8174 73.6725 78.8391 73.6199C78.8596 73.5685 78.8711 73.5132 78.8711 73.454C78.8711 73.3948 78.8596 73.3395 78.8391 73.2882C78.8174 73.2368 78.788 73.1908 78.751 73.1526C78.7139 73.1144 78.6705 73.0842 78.6207 73.0618C78.5721 73.0407 78.5184 73.0302 78.4609 73.0302C78.4035 73.0302 78.3485 73.0407 78.2987 73.0618C78.2476 73.0842 78.2029 73.1144 78.1658 73.1526C78.1288 73.1908 78.0994 73.2368 78.0789 73.2882C78.0572 73.3395 78.047 73.3948 78.047 73.454C78.047 73.5132 78.0572 73.5685 78.0789 73.6199C78.0994 73.6725 78.1288 73.7173 78.1658 73.7554C78.2029 73.7936 78.2476 73.8239 78.2987 73.8462C78.3485 73.8686 78.4035 73.8805 78.4609 73.8805ZM78.4609 72.9078C78.5363 72.9078 78.6053 72.9223 78.6718 72.9512C78.7369 72.9789 78.7931 73.0183 78.843 73.0684C78.8915 73.1171 78.9298 73.175 78.958 73.2421C78.9861 73.3079 79.0001 73.379 79.0001 73.454C79.0001 73.529 78.9861 73.6001 78.958 73.6659C78.9298 73.7317 78.8915 73.7896 78.843 73.8397C78.7931 73.8884 78.7369 73.9279 78.6718 73.9568C78.6053 73.9858 78.5363 74.0002 78.4609 74.0002C78.3843 74.0002 78.314 73.9858 78.2476 73.9568C78.1811 73.9279 78.1237 73.8884 78.0751 73.8397C78.0266 73.7896 77.9882 73.7317 77.9601 73.6659C77.932 73.6001 77.918 73.529 77.918 73.454C77.918 73.379 77.932 73.3079 77.9601 73.2421C77.9882 73.175 78.0266 73.1171 78.0751 73.0684C78.1237 73.0183 78.1811 72.9789 78.2476 72.9512C78.314 72.9223 78.3843 72.9078 78.4609 72.9078ZM28.6825 70.9558C28.6825 69.9897 29.2971 69.196 30.3013 69.196C31.2608 69.196 31.9086 69.9555 31.9086 70.9558C31.9086 71.9562 31.2608 72.7156 30.3013 72.7156C29.2971 72.7156 28.6825 71.9219 28.6825 70.9558ZM33.0023 70.9558V68.2075H31.8422V68.8749C31.4742 68.38 30.9159 68.0693 30.1569 68.0693C28.6608 68.0693 27.4879 69.2776 27.4879 70.9558C27.4879 72.6353 28.6608 73.8423 30.1569 73.8423C30.9159 73.8423 31.4742 73.5317 31.8422 73.0368V73.7041H33.0023V70.9558ZM72.2056 70.9558C72.2056 69.9897 72.8201 69.196 73.8244 69.196C74.7852 69.196 75.4317 69.9555 75.4317 70.9558C75.4317 71.9562 74.7852 72.7156 73.8244 72.7156C72.8201 72.7156 72.2056 71.9219 72.2056 70.9558ZM76.5266 70.9558V66.0002H75.3652V68.8749C74.9972 68.38 74.4389 68.0693 73.68 68.0693C72.1839 68.0693 71.011 69.2776 71.011 70.9558C71.011 72.6353 72.1839 73.8423 73.68 73.8423C74.4389 73.8423 74.9972 73.5317 75.3652 73.0368V73.7041H76.5266V70.9558ZM47.4026 69.1394C48.15 69.1394 48.6304 69.6225 48.7531 70.4728H45.9844C46.1084 69.6791 46.576 69.1394 47.4026 69.1394ZM47.4256 68.0693C45.8618 68.0693 44.7681 69.2421 44.7681 70.9558C44.7681 72.7038 45.9065 73.8423 47.5036 73.8423C48.3072 73.8423 49.0431 73.6357 49.6909 73.0723L49.1223 72.1865C48.6752 72.5537 48.1053 72.7617 47.57 72.7617C46.8226 72.7617 46.1416 72.405 45.9742 71.4152H49.9362C49.9477 71.2665 49.9592 71.1164 49.9592 70.9558C49.9477 69.2421 48.9205 68.0693 47.4256 68.0693ZM61.4337 70.9558C61.4337 69.9897 62.0483 69.196 63.0525 69.196C64.012 69.196 64.6598 69.9555 64.6598 70.9558C64.6598 71.9562 64.012 72.7156 63.0525 72.7156C62.0483 72.7156 61.4337 71.9219 61.4337 70.9558ZM65.7535 70.9558V68.2075H64.5934V68.8749C64.2241 68.38 63.6671 68.0693 62.9081 68.0693C61.412 68.0693 60.2391 69.2776 60.2391 70.9558C60.2391 72.6353 61.412 73.8423 62.9081 73.8423C63.6671 73.8423 64.2241 73.5317 64.5934 73.0368V73.7041H65.7535V70.9558ZM54.882 70.9558C54.882 72.6235 56.0089 73.8423 57.7286 73.8423C58.5322 73.8423 59.0675 73.658 59.6476 73.1868L59.0905 72.2207C58.6549 72.5432 58.1975 72.7156 57.6941 72.7156C56.7678 72.7038 56.0868 72.0141 56.0868 70.9558C56.0868 69.8976 56.7678 69.2079 57.6941 69.196C58.1975 69.196 58.6549 69.3685 59.0905 69.6909L59.6476 68.7248C59.0675 68.2536 58.5322 68.0693 57.7286 68.0693C56.0089 68.0693 54.882 69.2882 54.882 70.9558ZM69.8394 68.0693C69.1699 68.0693 68.7342 68.3918 68.4327 68.8749V68.2075H67.2828V73.7041H68.4442V70.6228C68.4442 69.7133 68.8237 69.2079 69.5826 69.2079C69.8177 69.2079 70.063 69.2421 70.3083 69.3461L70.666 68.2194C70.4092 68.1154 70.0745 68.0693 69.8394 68.0693ZM38.7402 68.6445C38.1818 68.2655 37.4127 68.0693 36.5643 68.0693C35.2126 68.0693 34.3425 68.7367 34.3425 69.8291C34.3425 70.7255 34.9903 71.2783 36.1836 71.4507L36.7317 71.531C37.368 71.6231 37.6682 71.7956 37.6682 72.1062C37.6682 72.5313 37.244 72.7735 36.4519 72.7735C35.6483 72.7735 35.0682 72.509 34.6773 72.1983L34.1304 73.1289C34.7667 73.612 35.5703 73.8423 36.4404 73.8423C37.9812 73.8423 38.8743 73.0947 38.8743 72.0483C38.8743 71.0822 38.1716 70.5767 37.0102 70.4043L36.4634 70.3227C35.9613 70.2543 35.5588 70.1516 35.5588 69.7831C35.5588 69.3803 35.9383 69.1394 36.5746 69.1394C37.2555 69.1394 37.9148 69.404 38.2381 69.6106L38.7402 68.6445ZM53.7091 68.0693C53.0396 68.0693 52.6039 68.3918 52.3037 68.8749V68.2075H51.1538V73.7041H52.3139V70.6228C52.3139 69.7133 52.6934 69.2079 53.4523 69.2079C53.6874 69.2079 53.9327 69.2421 54.178 69.3461L54.5357 68.2194C54.2789 68.1154 53.9442 68.0693 53.7091 68.0693ZM43.8086 68.2075H41.9113V66.5399H40.7384V68.2075H39.6562V69.3H40.7384V71.8074C40.7384 73.0828 41.2188 73.8423 42.591 73.8423C43.0944 73.8423 43.6744 73.6817 44.0424 73.4172L43.7077 72.3931C43.3614 72.5998 42.982 72.7038 42.6804 72.7038C42.1004 72.7038 41.9113 72.3352 41.9113 71.7837V69.3H43.8086V68.2075ZM26.462 73.7041V70.2543C26.462 68.9552 25.6583 68.0812 24.3628 68.0693C23.6818 68.0575 22.9791 68.276 22.4872 69.0473C22.1193 68.4379 21.5392 68.0693 20.7241 68.0693C20.1542 68.0693 19.5972 68.2418 19.1615 68.8854V68.2075H18.0001V73.7041H19.1717V70.657C19.1717 69.7028 19.6853 69.196 20.4788 69.196C21.2492 69.196 21.6389 69.7133 21.6389 70.6452V73.7041H22.8117V70.657C22.8117 69.7028 23.3471 69.196 24.1175 69.196C24.9096 69.196 25.2891 69.7133 25.2891 70.6452V73.7041H26.462Z" fill="#231F20"/>
<path d="M84.4889 56.6477V55.7462H84.2539L83.982 56.3654L83.7115 55.7462H83.4751V56.6477H83.6421V55.9678L83.8963 56.5546H84.0692L84.3234 55.9664V56.6477H84.4889ZM82.9977 56.6477V55.8999H83.2992V55.7476H82.5306V55.8999H82.8321V56.6477H82.9977Z" fill="#F79410"/>
<path d="M56 59.0002H39V27.0002H56V59.0002Z" fill="#FF5F00"/>
<path d="M40.21 43.0002C40.21 36.6209 43.2563 30.9384 48 27.2764C44.531 24.5986 40.153 23.0002 35.395 23.0002C24.1309 23.0002 15 31.9544 15 43.0002C15 54.0461 24.1309 63.0002 35.395 63.0002C40.153 63.0002 44.531 61.4019 48 58.7241C43.2563 55.062 40.21 49.3795 40.21 43.0002Z" fill="#EB001B"/>
<path d="M80 43.0002C80 54.0461 71.1462 63.0002 60.2238 63.0002C55.6102 63.0002 51.365 61.4019 48 58.7241C52.6011 55.062 55.5549 49.3795 55.5549 43.0002C55.5549 36.6209 52.6011 30.9384 48 27.2764C51.365 24.5986 55.6102 23.0002 60.2238 23.0002C71.1462 23.0002 80 31.9544 80 43.0002Z" fill="#F79E1B"/>
</svg>
