<svg width="154" height="145" viewBox="0 0 154 145" fill="none" xmlns="http://www.w3.org/2000/svg">
<path d="M0.388341 127.986H2.34134C2.55134 127.986 2.72234 128.037 2.85434 128.139C2.98634 128.241 3.08534 128.373 3.15134 128.535L6.21134 136.473C6.31334 136.731 6.40934 137.016 6.49934 137.328C6.59534 137.634 6.68534 137.958 6.76934 138.3C6.90734 137.61 7.07834 137.001 7.28234 136.473L10.3333 128.535C10.3873 128.397 10.4833 128.271 10.6213 128.157C10.7593 128.043 10.9303 127.986 11.1343 127.986H13.0873L7.83134 141H5.64434L0.388341 127.986ZM16.7282 131.622C17.3102 131.622 17.8442 131.715 18.3302 131.901C18.8222 132.087 19.2452 132.36 19.5992 132.72C19.9532 133.074 20.2292 133.512 20.4272 134.034C20.6252 134.55 20.7242 135.141 20.7242 135.807C20.7242 135.975 20.7152 136.116 20.6972 136.23C20.6852 136.338 20.6582 136.425 20.6162 136.491C20.5802 136.551 20.5292 136.596 20.4632 136.626C20.3972 136.65 20.3132 136.662 20.2112 136.662H14.5052C14.5712 137.61 14.8262 138.306 15.2702 138.75C15.7142 139.194 16.3022 139.416 17.0342 139.416C17.3942 139.416 17.7032 139.374 17.9612 139.29C18.2252 139.206 18.4532 139.113 18.6452 139.011C18.8432 138.909 19.0142 138.816 19.1582 138.732C19.3082 138.648 19.4522 138.606 19.5902 138.606C19.6802 138.606 19.7582 138.624 19.8242 138.66C19.8902 138.696 19.9472 138.747 19.9952 138.813L20.6432 139.623C20.3972 139.911 20.1212 140.154 19.8152 140.352C19.5092 140.544 19.1882 140.7 18.8522 140.82C18.5222 140.934 18.1832 141.015 17.8352 141.063C17.4932 141.111 17.1602 141.135 16.8362 141.135C16.1942 141.135 15.5972 141.03 15.0452 140.82C14.4932 140.604 14.0132 140.289 13.6052 139.875C13.1972 139.455 12.8762 138.939 12.6422 138.327C12.4082 137.709 12.2912 136.995 12.2912 136.185C12.2912 135.555 12.3932 134.964 12.5972 134.412C12.8012 133.854 13.0922 133.371 13.4702 132.963C13.8542 132.549 14.3192 132.222 14.8652 131.982C15.4172 131.742 16.0382 131.622 16.7282 131.622ZM16.7732 133.215C16.1252 133.215 15.6182 133.398 15.2522 133.764C14.8862 134.13 14.6522 134.649 14.5502 135.321H18.7262C18.7262 135.033 18.6872 134.763 18.6092 134.511C18.5312 134.253 18.4112 134.028 18.2492 133.836C18.0872 133.644 17.8832 133.494 17.6372 133.386C17.3912 133.272 17.1032 133.215 16.7732 133.215ZM22.2274 141V131.766H23.5324C23.7604 131.766 23.9194 131.808 24.0094 131.892C24.0994 131.976 24.1594 132.12 24.1894 132.324L24.3244 133.44C24.6544 132.87 25.0414 132.42 25.4854 132.09C25.9294 131.76 26.4274 131.595 26.9794 131.595C27.4355 131.595 27.8135 131.7 28.1134 131.91L27.8254 133.575C27.8074 133.683 27.7685 133.761 27.7085 133.809C27.6484 133.851 27.5674 133.872 27.4655 133.872C27.3755 133.872 27.2525 133.851 27.0965 133.809C26.9404 133.767 26.7334 133.746 26.4754 133.746C26.0134 133.746 25.6174 133.875 25.2874 134.133C24.9574 134.385 24.6784 134.757 24.4504 135.249V141H22.2274ZM31.6421 131.766V141H29.4191V131.766H31.6421ZM31.9751 129.075C31.9751 129.267 31.9361 129.447 31.8581 129.615C31.7801 129.783 31.6751 129.93 31.5431 130.056C31.4171 130.182 31.2671 130.284 31.0931 130.362C30.9191 130.434 30.7331 130.47 30.5351 130.47C30.3431 130.47 30.1601 130.434 29.9861 130.362C29.8181 130.284 29.6711 130.182 29.5451 130.056C29.4191 129.93 29.3171 129.783 29.2391 129.615C29.1671 129.447 29.1311 129.267 29.1311 129.075C29.1311 128.877 29.1671 128.691 29.2391 128.517C29.3171 128.343 29.4191 128.193 29.5451 128.067C29.6711 127.941 29.8181 127.842 29.9861 127.77C30.1601 127.692 30.3431 127.653 30.5351 127.653C30.7331 127.653 30.9191 127.692 31.0931 127.77C31.2671 127.842 31.4171 127.941 31.5431 128.067C31.6751 128.193 31.7801 128.343 31.8581 128.517C31.9361 128.691 31.9751 128.877 31.9751 129.075ZM34.2578 141V133.44L33.4568 133.314C33.2828 133.284 33.1418 133.224 33.0338 133.134C32.9318 133.044 32.8808 132.918 32.8808 132.756V131.847H34.2578V131.55C34.2578 130.986 34.3508 130.464 34.5368 129.984C34.7228 129.498 35.0048 129.078 35.3828 128.724C35.7608 128.37 36.2378 128.094 36.8138 127.896C37.3898 127.692 38.0708 127.59 38.8568 127.59C39.1088 127.59 39.3668 127.605 39.6308 127.635C39.8948 127.659 40.1228 127.701 40.3148 127.761L40.2428 128.913C40.2308 129.051 40.1558 129.135 40.0178 129.165C39.8798 129.189 39.7088 129.201 39.5048 129.201C38.9228 129.201 38.4338 129.252 38.0378 129.354C37.6478 129.456 37.3298 129.609 37.0838 129.813C36.8438 130.011 36.6698 130.263 36.5618 130.569C36.4598 130.869 36.4088 131.22 36.4088 131.622V131.847H42.1328V141H39.9098V133.431H36.4808V141H34.2578ZM50.8614 133.719C50.7954 133.803 50.7294 133.869 50.6634 133.917C50.6034 133.965 50.5134 133.989 50.3934 133.989C50.2794 133.989 50.1684 133.956 50.0604 133.89C49.9524 133.818 49.8234 133.74 49.6734 133.656C49.5234 133.566 49.3434 133.488 49.1334 133.422C48.9294 133.35 48.6744 133.314 48.3684 133.314C47.9784 133.314 47.6364 133.386 47.3424 133.53C47.0484 133.668 46.8024 133.869 46.6044 134.133C46.4124 134.397 46.2684 134.718 46.1724 135.096C46.0764 135.468 46.0284 135.891 46.0284 136.365C46.0284 136.857 46.0794 137.295 46.1814 137.679C46.2894 138.063 46.4424 138.387 46.6404 138.651C46.8384 138.909 47.0784 139.107 47.3604 139.245C47.6424 139.377 47.9604 139.443 48.3144 139.443C48.6684 139.443 48.9534 139.401 49.1694 139.317C49.3914 139.227 49.5774 139.131 49.7274 139.029C49.8774 138.921 50.0064 138.825 50.1144 138.741C50.2284 138.651 50.3544 138.606 50.4924 138.606C50.6724 138.606 50.8074 138.675 50.8974 138.813L51.5364 139.623C51.2904 139.911 51.0234 140.154 50.7354 140.352C50.4474 140.544 50.1474 140.7 49.8354 140.82C49.5294 140.934 49.2114 141.015 48.8814 141.063C48.5514 141.111 48.2244 141.135 47.9004 141.135C47.3304 141.135 46.7934 141.03 46.2894 140.82C45.7854 140.604 45.3444 140.292 44.9664 139.884C44.5944 139.476 44.2974 138.978 44.0754 138.39C43.8594 137.796 43.7514 137.121 43.7514 136.365C43.7514 135.687 43.8474 135.06 44.0394 134.484C44.2374 133.902 44.5254 133.401 44.9034 132.981C45.2814 132.555 45.7494 132.222 46.3074 131.982C46.8654 131.742 47.5074 131.622 48.2334 131.622C48.9234 131.622 49.5264 131.733 50.0424 131.955C50.5644 132.177 51.0324 132.495 51.4464 132.909L50.8614 133.719ZM59.8865 141H58.8875C58.6775 141 58.5125 140.97 58.3925 140.91C58.2725 140.844 58.1825 140.715 58.1225 140.523L57.9245 139.866C57.6905 140.076 57.4595 140.262 57.2315 140.424C57.0095 140.58 56.7785 140.712 56.5385 140.82C56.2985 140.928 56.0435 141.009 55.7735 141.063C55.5035 141.117 55.2035 141.144 54.8735 141.144C54.4835 141.144 54.1235 141.093 53.7935 140.991C53.4635 140.883 53.1785 140.724 52.9385 140.514C52.7045 140.304 52.5215 140.043 52.3895 139.731C52.2575 139.419 52.1915 139.056 52.1915 138.642C52.1915 138.294 52.2815 137.952 52.4615 137.616C52.6475 137.274 52.9535 136.968 53.3795 136.698C53.8055 136.422 54.3725 136.194 55.0805 136.014C55.7885 135.834 56.6675 135.732 57.7175 135.708V135.168C57.7175 134.55 57.5855 134.094 57.3215 133.8C57.0635 133.5 56.6855 133.35 56.1875 133.35C55.8275 133.35 55.5275 133.392 55.2875 133.476C55.0475 133.56 54.8375 133.656 54.6575 133.764C54.4835 133.866 54.3215 133.959 54.1715 134.043C54.0215 134.127 53.8565 134.169 53.6765 134.169C53.5265 134.169 53.3975 134.13 53.2895 134.052C53.1815 133.974 53.0945 133.878 53.0285 133.764L52.6235 133.053C53.6855 132.081 54.9665 131.595 56.4665 131.595C57.0065 131.595 57.4865 131.685 57.9065 131.865C58.3325 132.039 58.6925 132.285 58.9865 132.603C59.2805 132.915 59.5025 133.29 59.6525 133.728C59.8085 134.166 59.8865 134.646 59.8865 135.168V141ZM55.5665 139.614C55.7945 139.614 56.0045 139.593 56.1965 139.551C56.3885 139.509 56.5685 139.446 56.7365 139.362C56.9105 139.278 57.0755 139.176 57.2315 139.056C57.3935 138.93 57.5555 138.783 57.7175 138.615V137.058C57.0695 137.088 56.5265 137.145 56.0885 137.229C55.6565 137.307 55.3085 137.409 55.0445 137.535C54.7805 137.661 54.5915 137.808 54.4775 137.976C54.3695 138.144 54.3155 138.327 54.3155 138.525C54.3155 138.915 54.4295 139.194 54.6575 139.362C54.8915 139.53 55.1945 139.614 55.5665 139.614ZM64.8054 141.144C64.0074 141.144 63.3924 140.919 62.9604 140.469C62.5284 140.013 62.3124 139.386 62.3124 138.588V133.431H61.3764C61.2564 133.431 61.1514 133.392 61.0614 133.314C60.9774 133.236 60.9354 133.119 60.9354 132.963V132.081L62.4204 131.838L62.8884 129.318C62.9124 129.198 62.9664 129.105 63.0504 129.039C63.1404 128.973 63.2514 128.94 63.3834 128.94H64.5354V131.847H66.9654V133.431H64.5354V138.435C64.5354 138.723 64.6074 138.948 64.7514 139.11C64.8954 139.272 65.0874 139.353 65.3274 139.353C65.4654 139.353 65.5794 139.338 65.6694 139.308C65.7654 139.272 65.8464 139.236 65.9124 139.2C65.9844 139.164 66.0474 139.131 66.1014 139.101C66.1554 139.065 66.2094 139.047 66.2634 139.047C66.3294 139.047 66.3834 139.065 66.4254 139.101C66.4674 139.131 66.5124 139.179 66.5604 139.245L67.2264 140.325C66.9024 140.595 66.5304 140.799 66.1104 140.937C65.6904 141.075 65.2554 141.144 64.8054 141.144ZM70.8003 131.766V141H68.5773V131.766H70.8003ZM71.1333 129.075C71.1333 129.267 71.0943 129.447 71.0163 129.615C70.9383 129.783 70.8333 129.93 70.7013 130.056C70.5753 130.182 70.4253 130.284 70.2513 130.362C70.0773 130.434 69.8913 130.47 69.6933 130.47C69.5013 130.47 69.3183 130.434 69.1443 130.362C68.9763 130.284 68.8293 130.182 68.7033 130.056C68.5773 129.93 68.4753 129.783 68.3973 129.615C68.3253 129.447 68.2893 129.267 68.2893 129.075C68.2893 128.877 68.3253 128.691 68.3973 128.517C68.4753 128.343 68.5773 128.193 68.7033 128.067C68.8293 127.941 68.9763 127.842 69.1443 127.77C69.3183 127.692 69.5013 127.653 69.6933 127.653C69.8913 127.653 70.0773 127.692 70.2513 127.77C70.4253 127.842 70.5753 127.941 70.7013 128.067C70.8333 128.193 70.9383 128.343 71.0163 128.517C71.0943 128.691 71.1333 128.877 71.1333 129.075ZM76.962 131.622C77.652 131.622 78.276 131.733 78.834 131.955C79.398 132.177 79.878 132.492 80.274 132.9C80.67 133.308 80.976 133.806 81.192 134.394C81.408 134.982 81.516 135.639 81.516 136.365C81.516 137.097 81.408 137.757 81.192 138.345C80.976 138.933 80.67 139.434 80.274 139.848C79.878 140.262 79.398 140.58 78.834 140.802C78.276 141.024 77.652 141.135 76.962 141.135C76.272 141.135 75.645 141.024 75.081 140.802C74.517 140.58 74.034 140.262 73.632 139.848C73.236 139.434 72.927 138.933 72.705 138.345C72.489 137.757 72.381 137.097 72.381 136.365C72.381 135.639 72.489 134.982 72.705 134.394C72.927 133.806 73.236 133.308 73.632 132.9C74.034 132.492 74.517 132.177 75.081 131.955C75.645 131.733 76.272 131.622 76.962 131.622ZM76.962 139.425C77.73 139.425 78.297 139.167 78.663 138.651C79.035 138.135 79.221 137.379 79.221 136.383C79.221 135.387 79.035 134.628 78.663 134.106C78.297 133.584 77.73 133.323 76.962 133.323C76.182 133.323 75.606 133.587 75.234 134.115C74.862 134.637 74.676 135.393 74.676 136.383C74.676 137.373 74.862 138.129 75.234 138.651C75.606 139.167 76.182 139.425 76.962 139.425ZM82.9505 141V131.766H84.3095C84.5975 131.766 84.7865 131.901 84.8765 132.171L85.0295 132.9C85.2155 132.708 85.4105 132.534 85.6145 132.378C85.8245 132.222 86.0435 132.087 86.2715 131.973C86.5055 131.859 86.7545 131.772 87.0185 131.712C87.2825 131.652 87.5705 131.622 87.8825 131.622C88.3865 131.622 88.8335 131.709 89.2235 131.883C89.6135 132.051 89.9375 132.291 90.1955 132.603C90.4595 132.909 90.6575 133.278 90.7895 133.71C90.9275 134.136 90.9965 134.607 90.9965 135.123V141H88.7735V135.123C88.7735 134.559 88.6415 134.124 88.3775 133.818C88.1195 133.506 87.7295 133.35 87.2075 133.35C86.8235 133.35 86.4635 133.437 86.1275 133.611C85.7915 133.785 85.4735 134.022 85.1735 134.322V141H82.9505ZM101.542 133.566C101.482 133.662 101.419 133.731 101.353 133.773C101.287 133.809 101.203 133.827 101.101 133.827C100.993 133.827 100.876 133.797 100.75 133.737C100.63 133.677 100.489 133.611 100.327 133.539C100.165 133.461 99.9794 133.392 99.7694 133.332C99.5654 133.272 99.3224 133.242 99.0404 133.242C98.6024 133.242 98.2574 133.335 98.0054 133.521C97.7534 133.707 97.6274 133.95 97.6274 134.25C97.6274 134.448 97.6904 134.616 97.8164 134.754C97.9484 134.886 98.1194 135.003 98.3294 135.105C98.5454 135.207 98.7884 135.3 99.0584 135.384C99.3284 135.462 99.6044 135.549 99.8864 135.645C100.168 135.741 100.444 135.852 100.714 135.978C100.984 136.098 101.224 136.254 101.434 136.446C101.65 136.632 101.821 136.857 101.947 137.121C102.079 137.385 102.145 137.703 102.145 138.075C102.145 138.519 102.064 138.93 101.902 139.308C101.74 139.68 101.503 140.004 101.191 140.28C100.879 140.55 100.492 140.763 100.03 140.919C99.5744 141.069 99.0494 141.144 98.4554 141.144C98.1374 141.144 97.8254 141.114 97.5194 141.054C97.2194 141 96.9284 140.922 96.6464 140.82C96.3704 140.718 96.1124 140.598 95.8724 140.46C95.6384 140.322 95.4314 140.172 95.2514 140.01L95.7644 139.164C95.8304 139.062 95.9084 138.984 95.9984 138.93C96.0884 138.876 96.2024 138.849 96.3404 138.849C96.4784 138.849 96.6074 138.888 96.7274 138.966C96.8534 139.044 96.9974 139.128 97.1594 139.218C97.3214 139.308 97.5104 139.392 97.7264 139.47C97.9484 139.548 98.2274 139.587 98.5634 139.587C98.8274 139.587 99.0524 139.557 99.2384 139.497C99.4304 139.431 99.5864 139.347 99.7064 139.245C99.8324 139.143 99.9224 139.026 99.9764 138.894C100.036 138.756 100.066 138.615 100.066 138.471C100.066 138.255 100 138.078 99.8684 137.94C99.7424 137.802 99.5714 137.682 99.3554 137.58C99.1454 137.478 98.9024 137.388 98.6264 137.31C98.3564 137.226 98.0774 137.136 97.7894 137.04C97.5074 136.944 97.2284 136.833 96.9524 136.707C96.6824 136.575 96.4394 136.41 96.2234 136.212C96.0134 136.014 95.8424 135.771 95.7104 135.483C95.5844 135.195 95.5214 134.847 95.5214 134.439C95.5214 134.061 95.5964 133.701 95.7464 133.359C95.8964 133.017 96.1154 132.72 96.4034 132.468C96.6974 132.21 97.0604 132.006 97.4924 131.856C97.9304 131.7 98.4344 131.622 99.0044 131.622C99.6404 131.622 100.219 131.727 100.741 131.937C101.263 132.147 101.698 132.423 102.046 132.765L101.542 133.566ZM105.653 131.766V137.634C105.653 138.198 105.782 138.636 106.04 138.948C106.304 139.254 106.697 139.407 107.219 139.407C107.603 139.407 107.963 139.323 108.299 139.155C108.635 138.981 108.953 138.744 109.253 138.444V131.766H111.476V141H110.117C109.829 141 109.64 140.865 109.55 140.595L109.397 139.857C109.205 140.049 109.007 140.226 108.803 140.388C108.599 140.544 108.38 140.679 108.146 140.793C107.918 140.901 107.669 140.985 107.399 141.045C107.135 141.111 106.85 141.144 106.544 141.144C106.04 141.144 105.593 141.06 105.203 140.892C104.819 140.718 104.495 140.475 104.231 140.163C103.967 139.851 103.766 139.482 103.628 139.056C103.496 138.624 103.43 138.15 103.43 137.634V131.766H105.653ZM120.038 133.719C119.972 133.803 119.906 133.869 119.84 133.917C119.78 133.965 119.69 133.989 119.57 133.989C119.456 133.989 119.345 133.956 119.237 133.89C119.129 133.818 119 133.74 118.85 133.656C118.7 133.566 118.52 133.488 118.31 133.422C118.106 133.35 117.851 133.314 117.545 133.314C117.155 133.314 116.813 133.386 116.519 133.53C116.225 133.668 115.979 133.869 115.781 134.133C115.589 134.397 115.445 134.718 115.349 135.096C115.253 135.468 115.205 135.891 115.205 136.365C115.205 136.857 115.256 137.295 115.358 137.679C115.466 138.063 115.619 138.387 115.817 138.651C116.015 138.909 116.255 139.107 116.537 139.245C116.819 139.377 117.137 139.443 117.491 139.443C117.845 139.443 118.13 139.401 118.346 139.317C118.568 139.227 118.754 139.131 118.904 139.029C119.054 138.921 119.183 138.825 119.291 138.741C119.405 138.651 119.531 138.606 119.669 138.606C119.849 138.606 119.984 138.675 120.074 138.813L120.713 139.623C120.467 139.911 120.2 140.154 119.912 140.352C119.624 140.544 119.324 140.7 119.012 140.82C118.706 140.934 118.388 141.015 118.058 141.063C117.728 141.111 117.401 141.135 117.077 141.135C116.507 141.135 115.97 141.03 115.466 140.82C114.962 140.604 114.521 140.292 114.143 139.884C113.771 139.476 113.474 138.978 113.252 138.39C113.036 137.796 112.928 137.121 112.928 136.365C112.928 135.687 113.024 135.06 113.216 134.484C113.414 133.902 113.702 133.401 114.08 132.981C114.458 132.555 114.926 132.222 115.484 131.982C116.042 131.742 116.684 131.622 117.41 131.622C118.1 131.622 118.703 131.733 119.219 131.955C119.741 132.177 120.209 132.495 120.623 132.909L120.038 133.719ZM128.316 133.719C128.25 133.803 128.184 133.869 128.118 133.917C128.058 133.965 127.968 133.989 127.848 133.989C127.734 133.989 127.623 133.956 127.515 133.89C127.407 133.818 127.278 133.74 127.128 133.656C126.978 133.566 126.798 133.488 126.588 133.422C126.384 133.35 126.129 133.314 125.823 133.314C125.433 133.314 125.091 133.386 124.797 133.53C124.503 133.668 124.257 133.869 124.059 134.133C123.867 134.397 123.723 134.718 123.627 135.096C123.531 135.468 123.483 135.891 123.483 136.365C123.483 136.857 123.534 137.295 123.636 137.679C123.744 138.063 123.897 138.387 124.095 138.651C124.293 138.909 124.533 139.107 124.815 139.245C125.097 139.377 125.415 139.443 125.769 139.443C126.123 139.443 126.408 139.401 126.624 139.317C126.846 139.227 127.032 139.131 127.182 139.029C127.332 138.921 127.461 138.825 127.569 138.741C127.683 138.651 127.809 138.606 127.947 138.606C128.127 138.606 128.262 138.675 128.352 138.813L128.991 139.623C128.745 139.911 128.478 140.154 128.19 140.352C127.902 140.544 127.602 140.7 127.29 140.82C126.984 140.934 126.666 141.015 126.336 141.063C126.006 141.111 125.679 141.135 125.355 141.135C124.785 141.135 124.248 141.03 123.744 140.82C123.24 140.604 122.799 140.292 122.421 139.884C122.049 139.476 121.752 138.978 121.53 138.39C121.314 137.796 121.206 137.121 121.206 136.365C121.206 135.687 121.302 135.06 121.494 134.484C121.692 133.902 121.98 133.401 122.358 132.981C122.736 132.555 123.204 132.222 123.762 131.982C124.32 131.742 124.962 131.622 125.688 131.622C126.378 131.622 126.981 131.733 127.497 131.955C128.019 132.177 128.487 132.495 128.901 132.909L128.316 133.719ZM133.922 131.622C134.504 131.622 135.038 131.715 135.524 131.901C136.016 132.087 136.439 132.36 136.793 132.72C137.147 133.074 137.423 133.512 137.621 134.034C137.819 134.55 137.918 135.141 137.918 135.807C137.918 135.975 137.909 136.116 137.891 136.23C137.879 136.338 137.852 136.425 137.81 136.491C137.774 136.551 137.723 136.596 137.657 136.626C137.591 136.65 137.507 136.662 137.405 136.662H131.699C131.765 137.61 132.02 138.306 132.464 138.75C132.908 139.194 133.496 139.416 134.228 139.416C134.588 139.416 134.897 139.374 135.155 139.29C135.419 139.206 135.647 139.113 135.839 139.011C136.037 138.909 136.208 138.816 136.352 138.732C136.502 138.648 136.646 138.606 136.784 138.606C136.874 138.606 136.952 138.624 137.018 138.66C137.084 138.696 137.141 138.747 137.189 138.813L137.837 139.623C137.591 139.911 137.315 140.154 137.009 140.352C136.703 140.544 136.382 140.7 136.046 140.82C135.716 140.934 135.377 141.015 135.029 141.063C134.687 141.111 134.354 141.135 134.03 141.135C133.388 141.135 132.791 141.03 132.239 140.82C131.687 140.604 131.207 140.289 130.799 139.875C130.391 139.455 130.07 138.939 129.836 138.327C129.602 137.709 129.485 136.995 129.485 136.185C129.485 135.555 129.587 134.964 129.791 134.412C129.995 133.854 130.286 133.371 130.664 132.963C131.048 132.549 131.513 132.222 132.059 131.982C132.611 131.742 133.232 131.622 133.922 131.622ZM133.967 133.215C133.319 133.215 132.812 133.398 132.446 133.764C132.08 134.13 131.846 134.649 131.744 135.321H135.92C135.92 135.033 135.881 134.763 135.803 134.511C135.725 134.253 135.605 134.028 135.443 133.836C135.281 133.644 135.077 133.494 134.831 133.386C134.585 133.272 134.297 133.215 133.967 133.215ZM144.902 133.566C144.842 133.662 144.779 133.731 144.713 133.773C144.647 133.809 144.563 133.827 144.461 133.827C144.353 133.827 144.236 133.797 144.11 133.737C143.99 133.677 143.849 133.611 143.687 133.539C143.525 133.461 143.339 133.392 143.129 133.332C142.925 133.272 142.682 133.242 142.4 133.242C141.962 133.242 141.617 133.335 141.365 133.521C141.113 133.707 140.987 133.95 140.987 134.25C140.987 134.448 141.05 134.616 141.176 134.754C141.308 134.886 141.479 135.003 141.689 135.105C141.905 135.207 142.148 135.3 142.418 135.384C142.688 135.462 142.964 135.549 143.246 135.645C143.528 135.741 143.804 135.852 144.074 135.978C144.344 136.098 144.584 136.254 144.794 136.446C145.01 136.632 145.181 136.857 145.307 137.121C145.439 137.385 145.505 137.703 145.505 138.075C145.505 138.519 145.424 138.93 145.262 139.308C145.1 139.68 144.863 140.004 144.551 140.28C144.239 140.55 143.852 140.763 143.39 140.919C142.934 141.069 142.409 141.144 141.815 141.144C141.497 141.144 141.185 141.114 140.879 141.054C140.579 141 140.288 140.922 140.006 140.82C139.73 140.718 139.472 140.598 139.232 140.46C138.998 140.322 138.791 140.172 138.611 140.01L139.124 139.164C139.19 139.062 139.268 138.984 139.358 138.93C139.448 138.876 139.562 138.849 139.7 138.849C139.838 138.849 139.967 138.888 140.087 138.966C140.213 139.044 140.357 139.128 140.519 139.218C140.681 139.308 140.87 139.392 141.086 139.47C141.308 139.548 141.587 139.587 141.923 139.587C142.187 139.587 142.412 139.557 142.598 139.497C142.79 139.431 142.946 139.347 143.066 139.245C143.192 139.143 143.282 139.026 143.336 138.894C143.396 138.756 143.426 138.615 143.426 138.471C143.426 138.255 143.36 138.078 143.228 137.94C143.102 137.802 142.931 137.682 142.715 137.58C142.505 137.478 142.262 137.388 141.986 137.31C141.716 137.226 141.437 137.136 141.149 137.04C140.867 136.944 140.588 136.833 140.312 136.707C140.042 136.575 139.799 136.41 139.583 136.212C139.373 136.014 139.202 135.771 139.07 135.483C138.944 135.195 138.881 134.847 138.881 134.439C138.881 134.061 138.956 133.701 139.106 133.359C139.256 133.017 139.475 132.72 139.763 132.468C140.057 132.21 140.42 132.006 140.852 131.856C141.29 131.7 141.794 131.622 142.364 131.622C143 131.622 143.579 131.727 144.101 131.937C144.623 132.147 145.058 132.423 145.406 132.765L144.902 133.566ZM152.459 133.566C152.399 133.662 152.336 133.731 152.27 133.773C152.204 133.809 152.12 133.827 152.018 133.827C151.91 133.827 151.793 133.797 151.667 133.737C151.547 133.677 151.406 133.611 151.244 133.539C151.082 133.461 150.896 133.392 150.686 133.332C150.482 133.272 150.239 133.242 149.957 133.242C149.519 133.242 149.174 133.335 148.922 133.521C148.67 133.707 148.544 133.95 148.544 134.25C148.544 134.448 148.607 134.616 148.733 134.754C148.865 134.886 149.036 135.003 149.246 135.105C149.462 135.207 149.705 135.3 149.975 135.384C150.245 135.462 150.521 135.549 150.803 135.645C151.085 135.741 151.361 135.852 151.631 135.978C151.901 136.098 152.141 136.254 152.351 136.446C152.567 136.632 152.738 136.857 152.864 137.121C152.996 137.385 153.062 137.703 153.062 138.075C153.062 138.519 152.981 138.93 152.819 139.308C152.657 139.68 152.42 140.004 152.108 140.28C151.796 140.55 151.409 140.763 150.947 140.919C150.491 141.069 149.966 141.144 149.372 141.144C149.054 141.144 148.742 141.114 148.436 141.054C148.136 141 147.845 140.922 147.563 140.82C147.287 140.718 147.029 140.598 146.789 140.46C146.555 140.322 146.348 140.172 146.168 140.01L146.681 139.164C146.747 139.062 146.825 138.984 146.915 138.93C147.005 138.876 147.119 138.849 147.257 138.849C147.395 138.849 147.524 138.888 147.644 138.966C147.77 139.044 147.914 139.128 148.076 139.218C148.238 139.308 148.427 139.392 148.643 139.47C148.865 139.548 149.144 139.587 149.48 139.587C149.744 139.587 149.969 139.557 150.155 139.497C150.347 139.431 150.503 139.347 150.623 139.245C150.749 139.143 150.839 139.026 150.893 138.894C150.953 138.756 150.983 138.615 150.983 138.471C150.983 138.255 150.917 138.078 150.785 137.94C150.659 137.802 150.488 137.682 150.272 137.58C150.062 137.478 149.819 137.388 149.543 137.31C149.273 137.226 148.994 137.136 148.706 137.04C148.424 136.944 148.145 136.833 147.869 136.707C147.599 136.575 147.356 136.41 147.14 136.212C146.93 136.014 146.759 135.771 146.627 135.483C146.501 135.195 146.438 134.847 146.438 134.439C146.438 134.061 146.513 133.701 146.663 133.359C146.813 133.017 147.032 132.72 147.32 132.468C147.614 132.21 147.977 132.006 148.409 131.856C148.847 131.7 149.351 131.622 149.921 131.622C150.557 131.622 151.136 131.727 151.658 131.937C152.18 132.147 152.615 132.423 152.963 132.765L152.459 133.566Z" fill="white"/>
<circle cx="77" cy="43" r="42.5" stroke="white" stroke-opacity="0.65"/>
<path d="M71.4908 54.5769C71.0206 54.5769 70.5504 54.403 70.1915 54.0551L60.9999 45.1449C60.2821 44.4491 60.2821 43.3218 60.9999 42.626C61.7177 41.9302 62.8806 41.9302 63.5984 42.626L71.4908 50.2767L90.4016 31.945C91.1194 31.2491 92.2823 31.2491 93.0001 31.945C93.7179 32.6408 93.7179 33.7681 93.0001 34.4639L72.79 54.0551C72.4311 54.403 71.9609 54.5769 71.4908 54.5769Z" fill="white"/>
</svg>
