<svg width="96" height="96" viewBox="0 0 96 96" fill="none" xmlns="http://www.w3.org/2000/svg">
<path d="M63.7006 37.9005C62.1443 37.2935 60.4994 36.9887 58.8431 37.0003C53.4831 37.0003 49.7004 39.8953 49.6725 44.0434C49.639 47.094 52.3637 48.8106 54.4211 49.8335C56.5344 50.8802 57.2407 51.5382 57.2351 52.4802C57.2212 53.9068 55.5462 54.5528 53.9912 54.5528C51.8528 54.5528 50.6803 54.2328 48.8797 53.4313L48.2125 53.0993L47.4559 57.8785C48.7568 58.4617 51.1018 58.9611 53.5278 59C59.2256 59 62.9497 56.1259 62.9943 51.7057C63.039 49.2742 61.5706 47.4289 58.469 45.9097C56.5875 44.9227 55.415 44.2618 55.415 43.2599C55.415 42.3746 56.4172 41.4296 58.5109 41.4296C59.9033 41.3938 61.2872 41.672 62.5728 42.246L63.0753 42.4883L63.8318 37.8706L63.7006 37.9005ZM77.6115 37.3921H73.424C72.1203 37.3921 71.146 37.7719 70.5737 39.1596L62.5197 58.7009H68.2175L69.3565 55.5009L76.3078 55.5068C76.4781 56.2545 76.9778 58.7009 76.9778 58.7009H82L77.6115 37.3921ZM41.9675 37.2127H47.3917L43.9998 58.5334H38.5728L41.9675 37.2067V37.2127ZM28.1795 48.9632L28.7434 51.924L34.0503 37.3921H39.7984L31.2531 58.671H25.519L20.829 40.649C20.7534 40.352 20.5733 40.098 20.3265 39.9402C18.6397 39.0015 16.8505 38.2913 15 37.8258L15.0698 37.3772H23.8105C24.9942 37.425 25.9489 37.8258 26.2755 39.1835L28.1795 48.9721V48.9632ZM70.9143 51.1374L73.0778 45.1739C73.0499 45.2338 73.5245 43.9418 73.7981 43.1403L74.1694 44.9795L75.4228 51.1314H70.9143V51.1374Z" fill="#253B80"/>
</svg>
